<svg width="500" height="406" viewBox="0 0 500 406" fill="none" xmlns="http://www.w3.org/2000/svg">
<g clip-path="url(#clip0_1_176)">
<path d="M249.975 361.264V360.059C252.37 360.059 254.8 360.009 257.201 359.914L257.249 361.118C254.832 361.214 252.386 361.263 249.975 361.264ZM242.705 361.124C240.297 361.03 237.855 360.884 235.445 360.696L235.54 359.496C237.934 359.685 240.36 359.828 242.752 359.921L242.705 361.124ZM264.507 360.681L264.412 359.48C266.801 359.289 269.219 359.046 271.6 358.758L271.744 359.953C269.348 360.243 266.914 360.487 264.507 360.679V360.681ZM228.208 359.979C225.807 359.691 223.384 359.352 221.006 358.97L221.197 357.781C223.559 358.16 225.966 358.497 228.351 358.782L228.208 359.979ZM278.945 358.938L278.753 357.748C281.114 357.367 283.506 356.93 285.857 356.451L286.098 357.631C283.729 358.113 281.321 358.553 278.944 358.938H278.945ZM213.85 357.673C211.48 357.191 209.093 356.659 206.752 356.086L207.038 354.916C209.363 355.486 211.735 356.016 214.088 356.492L213.85 357.673ZM293.196 356.037L292.907 354.869C295.239 354.295 297.587 353.664 299.886 353.002L300.221 354.159C297.906 354.829 295.542 355.462 293.196 356.04V356.037ZM199.724 354.213C197.402 353.543 195.065 352.817 192.778 352.056L193.158 350.912C195.43 351.668 197.751 352.389 200.058 353.055L199.724 354.213ZM307.164 351.992L306.782 350.848C309.055 350.088 311.345 349.271 313.586 348.419L314.014 349.545C311.757 350.403 309.452 351.225 307.164 351.99L307.164 351.992ZM185.906 349.612C183.647 348.756 181.372 347.841 179.143 346.891L179.615 345.783C181.829 346.726 184.089 347.635 186.334 348.485L185.906 349.612ZM320.742 346.835L320.269 345.727C322.47 344.787 324.681 343.79 326.838 342.764L327.355 343.852C325.183 344.885 322.96 345.889 320.742 346.835ZM172.497 343.898C170.31 342.859 168.117 341.763 165.979 340.64L166.54 339.574C168.663 340.69 170.841 341.778 173.013 342.81L172.497 343.898ZM333.848 340.601L333.286 339.535C335.407 338.419 337.532 337.247 339.6 336.05L340.202 337.091C338.12 338.296 335.981 339.477 333.846 340.6L333.848 340.601ZM159.6 337.122C157.502 335.908 155.406 334.64 153.37 333.35L154.014 332.333C156.036 333.614 158.118 334.874 160.202 336.08L159.6 337.122ZM346.415 333.328L345.771 332.311C347.789 331.032 349.814 329.692 351.787 328.328L352.472 329.318C350.485 330.692 348.447 332.041 346.415 333.328ZM147.298 329.332C145.307 327.956 143.321 326.523 141.395 325.074L142.117 324.111C144.031 325.55 146.004 326.973 147.982 328.34L147.298 329.332ZM358.367 325.067L357.645 324.104C359.554 322.668 361.466 321.169 363.327 319.648L364.089 320.581C362.216 322.112 360.291 323.621 358.369 325.066L358.367 325.067ZM135.67 320.584C133.8 319.057 131.937 317.47 130.131 315.868L130.929 314.965C132.724 316.556 134.576 318.132 136.433 319.649L135.67 320.584ZM369.623 315.871L368.825 314.968C370.618 313.378 372.405 311.73 374.133 310.07L374.967 310.939C373.227 312.609 371.429 314.268 369.623 315.869V315.871ZM124.782 310.934C123.045 309.266 121.315 307.535 119.638 305.793L120.506 304.958C122.171 306.689 123.89 308.408 125.616 310.065L124.782 310.934ZM380.112 305.798L379.244 304.962C380.904 303.236 382.556 301.45 384.147 299.654L385.05 300.454C383.446 302.26 381.786 304.059 380.113 305.798H380.112ZM114.703 300.451C113.098 298.642 111.512 296.779 109.988 294.917L110.921 294.155C112.433 296.005 114.009 297.855 115.604 299.652L114.703 300.451ZM389.765 294.916L388.832 294.153C390.353 292.293 391.855 290.379 393.296 288.467L394.259 289.19C392.809 291.116 391.297 293.043 389.766 294.914L389.765 294.916ZM105.501 289.201C104.05 287.274 102.618 285.292 101.246 283.31L102.237 282.624C103.599 284.594 105.022 286.562 106.463 288.476L105.501 289.201ZM398.519 283.29L397.529 282.605C398.896 280.627 400.238 278.599 401.523 276.576L402.54 277.22C401.249 279.259 399.896 281.3 398.519 283.292L398.519 283.29ZM97.2339 277.257C95.9436 275.222 94.6761 273.133 93.4677 271.047L94.5093 270.445C95.7099 272.517 96.9689 274.592 98.2502 276.613L97.2339 277.257ZM406.318 270.995L405.276 270.393C406.48 268.309 407.658 266.178 408.774 264.058L409.839 264.619C408.717 266.753 407.532 268.898 406.318 270.996L406.318 270.995ZM89.9556 264.691C88.8339 262.56 87.7393 260.377 86.7042 258.202L87.7916 257.684C88.8206 259.845 89.908 262.014 91.0219 264.13L89.9556 264.691ZM413.099 258.102L412.011 257.585C413.041 255.418 414.043 253.196 414.986 250.985L416.094 251.458C415.146 253.681 414.135 255.919 413.099 258.102ZM83.7142 251.591C82.7659 249.372 81.8519 247.11 80.9981 244.865L82.1234 244.437C82.9718 246.665 83.8797 248.914 84.8214 251.117L83.7142 251.591ZM418.819 244.695L417.693 244.268C418.546 242.015 419.365 239.719 420.124 237.444L421.268 237.825C420.502 240.116 419.678 242.427 418.819 244.695ZM78.5505 238.015C77.784 235.727 77.0543 233.39 76.3829 231.073L77.5396 230.738C78.2073 233.039 78.9322 235.36 79.6939 237.633L78.5505 238.015ZM423.427 230.879L422.269 230.545C422.932 228.248 423.561 225.899 424.136 223.566L425.305 223.853C424.726 226.203 424.095 228.567 423.427 230.879ZM74.4959 224.048C73.9173 221.703 73.3796 219.317 72.8967 216.954L74.0769 216.713C74.5585 219.061 75.0902 221.432 75.6646 223.761L74.4959 224.048ZM426.895 216.757L425.714 216.516C426.19 214.168 426.625 211.779 427.007 209.411L428.196 209.603C427.812 211.989 427.374 214.396 426.895 216.758V216.757ZM71.5842 209.8C71.1982 207.422 70.855 205 70.5636 202.599L71.7588 202.455C72.0478 204.839 72.3892 207.245 72.7727 209.607L71.5842 209.8ZM429.207 202.398L428.011 202.255C428.298 199.871 428.539 197.452 428.728 195.067L429.929 195.162C429.738 197.564 429.495 199.999 429.207 202.398ZM69.838 195.364C69.6436 192.959 69.4955 190.517 69.3979 188.104L70.6021 188.055C70.6997 190.451 70.8466 192.877 71.0399 195.267L69.838 195.364ZM430.366 187.903L429.162 187.856C429.256 185.456 429.304 183.026 429.304 180.631V180.231H430.508V180.628C430.507 183.041 430.459 185.487 430.364 187.903H430.366ZM70.4474 180.832H69.2432V180.63C69.2432 178.282 69.2889 175.902 69.3792 173.562L70.5835 173.608C70.4943 175.933 70.4486 178.296 70.4486 180.632L70.4474 180.832ZM429.144 173.012C429.044 170.621 428.895 168.195 428.699 165.801L429.899 165.703C430.096 168.111 430.247 170.555 430.347 172.962L429.144 173.012ZM71.0044 166.396L69.8038 166.302C69.9928 163.894 70.2337 161.456 70.5185 159.064L71.7142 159.206C71.4312 161.582 71.1928 164.001 71.0044 166.396ZM427.966 158.614C427.676 156.239 427.332 153.833 426.942 151.463L428.131 151.268C428.521 153.654 428.868 156.077 429.159 158.468L427.966 158.614ZM72.7113 152.051L71.5222 151.861C71.9039 149.476 72.3392 147.069 72.8167 144.704L73.9968 144.945C73.5224 147.293 73.0901 149.685 72.7107 152.054L72.7113 152.051ZM425.634 144.357C425.152 142.004 424.614 139.633 424.038 137.312L425.207 137.022C425.787 139.36 426.327 141.747 426.813 144.116L425.634 144.357ZM75.5695 137.891L74.3996 137.605C74.9722 135.261 75.6039 132.896 76.2692 130.575L77.4264 130.908C76.7623 133.215 76.1385 135.564 75.5696 137.892L75.5695 137.891ZM422.159 130.335C421.488 128.035 420.762 125.716 419.997 123.442L421.141 123.058C421.91 125.346 422.642 127.683 423.316 129.998L422.159 130.335ZM79.5652 124.01L78.4212 123.63C79.1834 121.337 80.0041 119.025 80.8609 116.757L81.9874 117.183C81.1372 119.435 80.322 121.732 79.5652 124.01ZM417.554 116.642C416.699 114.402 415.788 112.155 414.849 109.964L415.956 109.49C416.902 111.695 417.819 113.957 418.68 116.212L417.554 116.642ZM84.6873 110.462L83.5788 109.991C84.5253 107.766 85.5308 105.529 86.567 103.344L87.6551 103.859C86.626 106.031 85.6272 108.253 84.6873 110.462ZM411.877 103.401C410.846 101.242 409.757 99.0747 408.64 96.9583L409.705 96.396C410.83 98.5262 411.926 100.708 412.964 102.881L411.877 103.401ZM90.8878 97.3828L89.8214 96.8235C90.9438 94.6842 92.1263 92.5371 93.3353 90.4411L94.3782 91.0432C93.1776 93.1259 92.0029 95.2586 90.8884 97.3834L90.8878 97.3828ZM405.144 90.6507C403.939 88.5776 402.679 86.504 401.396 84.4863L402.412 83.8402C403.704 85.8717 404.973 87.9592 406.185 90.0461L405.144 90.6507ZM98.1209 84.8548L97.1033 84.2111C98.3954 82.1688 99.7459 80.1252 101.118 78.1377L102.109 78.8217C100.747 80.7966 99.4052 82.8263 98.1215 84.8554L98.1209 84.8548ZM397.402 78.4761C396.036 76.5078 394.612 74.5401 393.17 72.6296L394.133 71.9041C395.585 73.8308 397.019 75.8081 398.394 77.7903L397.402 78.4761ZM106.335 72.9548L105.372 72.2322C106.823 70.3007 108.333 68.3733 109.859 66.5026L110.792 67.2643C109.276 69.1218 107.776 71.0371 106.337 72.9554L106.335 72.9548ZM388.704 66.9554C387.186 65.1021 385.607 63.2548 384.015 61.4636L384.915 60.6634C386.518 62.4667 388.106 64.3266 389.636 66.1925L388.704 66.9554ZM115.478 61.7562L114.575 60.9584C116.173 59.1521 117.832 57.3524 119.504 55.6087L120.373 56.4426C118.712 58.1743 117.061 59.9625 115.476 61.7562H115.478ZM379.113 56.1614C377.446 54.4322 375.725 52.7162 373.995 51.0598L374.828 50.1903C376.568 51.8582 378.301 53.5856 379.978 55.3263L379.113 56.1614ZM125.479 51.3295L124.644 50.4619C126.382 48.7898 128.179 47.1292 129.984 45.5246L130.783 46.4278C128.987 48.0191 127.203 49.6689 125.476 51.3301L125.479 51.3295ZM368.68 46.1653C366.881 44.5745 365.027 43.0006 363.171 41.4869L363.932 40.5536C365.799 42.077 367.665 43.6617 369.478 45.2633L368.68 46.1653ZM136.275 41.7398L135.512 40.8083C137.378 39.2778 139.305 37.7671 141.226 36.3172L141.949 37.2806C140.041 38.719 138.131 40.2201 136.275 41.7398ZM357.473 37.0331C355.552 35.5911 353.577 34.1707 351.604 32.81L352.288 31.8189C354.275 33.1887 356.262 34.6187 358.196 36.0704L357.473 37.0331ZM147.801 33.0484L147.115 32.0585C149.102 30.6827 151.136 29.3316 153.168 28.0413L153.813 29.0576C151.796 30.3389 149.773 31.681 147.801 33.0478L147.801 33.0484ZM345.569 28.8246C343.539 27.5421 341.455 26.2843 339.376 25.0855L339.978 24.0427C342.071 25.2469 344.168 26.5155 346.213 27.8065L345.569 28.8246ZM159.98 25.3143L159.378 24.2727C161.46 23.0655 163.598 21.8823 165.73 20.757L166.293 21.8221C164.171 22.9396 162.048 24.1143 159.98 25.3143ZM333.037 21.5987C330.91 20.4842 328.731 19.398 326.559 18.3703L327.074 17.2816C329.26 18.3167 331.454 19.4101 333.595 20.533L333.037 21.5987ZM172.733 18.5882L172.215 17.5008C174.386 16.4658 176.61 15.4597 178.825 14.5108L179.299 15.6174C177.099 16.5597 174.89 17.5592 172.733 18.5882ZM319.953 15.4055C317.74 14.4656 315.478 13.5594 313.231 12.7105L313.657 11.5839C315.919 12.4377 318.196 13.3511 320.423 14.297L319.953 15.4055ZM185.979 12.9158L185.55 11.7904C187.803 10.9312 190.107 10.1045 192.397 9.33806L192.78 10.4821C190.505 11.2425 188.217 12.0626 185.979 12.9158ZM306.406 10.2906C304.13 9.53615 301.808 8.81784 299.504 8.15613L299.837 6.99888C302.157 7.66481 304.493 8.38794 306.784 9.1478L306.406 10.2906ZM199.675 8.32291L199.339 7.16687C201.654 6.49311 204.017 5.85729 206.362 5.27746L206.651 6.44615C204.323 7.02112 201.975 7.65276 199.675 8.32291ZM292.52 6.30465C290.195 5.73747 287.823 5.21002 285.468 4.73616L285.706 3.55543C288.076 4.0323 290.462 4.56396 292.806 5.13476L292.52 6.30465ZM213.698 4.85478L213.457 3.67525C215.818 3.19357 218.225 2.74982 220.61 2.36086L220.804 3.54941C218.433 3.93416 216.043 4.3737 213.698 4.85357L213.698 4.85478ZM278.358 3.45428C275.99 3.07676 273.582 2.74199 271.202 2.46081L271.344 1.26502C273.74 1.54862 276.161 1.88519 278.547 2.26572L278.358 3.45428ZM227.955 2.53125L227.81 1.33607C230.206 1.04465 232.639 0.794178 235.045 0.602106L235.143 1.8021C232.752 1.99477 230.334 2.24164 227.955 2.53005V2.53125ZM264.013 1.75454C261.626 1.56849 259.196 1.4282 256.801 1.33728L256.846 0.133066C259.261 0.224586 261.703 0.366079 264.106 0.554538L264.013 1.75454ZM242.354 1.36016L242.305 0.155947C244.713 0.0565996 247.159 0.00421474 249.576 0V1.20421C247.176 1.20843 244.746 1.26081 242.354 1.35895L242.354 1.36016Z" fill="#CCCCCC"/>
<path d="M362.028 405.39H138.039C126.843 405.377 117.726 396.797 117.713 386.262V80.8449C117.726 70.3089 126.844 61.7283 138.038 61.7166H362.027C373.223 61.7283 382.341 70.3089 382.353 80.8446V386.261C382.34 396.797 373.222 405.378 362.028 405.39Z" fill="#3F3D56"/>
<path d="M364.253 387.005H135.814C132.193 387.002 129.244 384.384 129.239 381.169V87.9592C129.244 84.7446 132.193 82.1269 135.813 82.123H364.253C367.873 82.1269 370.822 84.7446 370.827 87.9589V381.169C370.822 384.384 367.873 387.002 364.253 387.005Z" fill="white"/>
<path d="M250.031 175.811C245.289 175.813 240.593 174.881 236.211 173.068C231.829 171.255 227.847 168.597 224.493 165.246C221.138 161.894 218.476 157.915 216.66 153.534C214.843 149.154 213.907 144.459 213.905 139.717V139.684C213.905 139.608 213.905 139.529 213.909 139.453C213.955 132.318 216.112 125.356 220.109 119.446C224.106 113.535 229.764 108.941 236.369 106.242C242.975 103.543 250.231 102.86 257.224 104.28C264.216 105.7 270.632 109.159 275.661 114.22C280.69 119.281 284.108 125.719 285.484 132.72C286.859 139.722 286.13 146.974 283.389 153.561C280.648 160.149 276.018 165.778 270.082 169.737C264.146 173.697 257.171 175.81 250.035 175.81H250.031V175.811ZM250.031 104.318C240.694 104.339 231.743 108.044 225.122 114.627C218.502 121.21 214.746 130.14 214.672 139.477C214.668 139.557 214.668 139.624 214.668 139.684C214.667 146.679 216.741 153.517 220.627 159.334C224.513 165.15 230.036 169.684 236.499 172.361C242.961 175.039 250.073 175.74 256.934 174.375C263.794 173.011 270.097 169.643 275.043 164.697C279.99 159.751 283.359 153.449 284.724 146.589C286.089 139.728 285.389 132.616 282.713 126.154C280.036 119.691 275.504 114.167 269.688 110.28C263.872 106.393 257.034 104.318 250.038 104.318H250.031Z" fill="#E4E4E4"/>
<path d="M178.93 212.055V200.615C178.93 199.971 178.674 199.353 178.219 198.897C177.763 198.442 177.145 198.186 176.501 198.186C175.856 198.186 175.238 198.442 174.783 198.897C174.327 199.353 174.071 199.971 174.071 200.615V212.055C173.113 212.592 172.359 213.433 171.929 214.444C171.499 215.455 171.417 216.58 171.694 217.643C171.972 218.706 172.595 219.647 173.464 220.319C174.334 220.991 175.402 221.355 176.501 221.355C177.599 221.355 178.667 220.991 179.537 220.319C180.407 219.647 181.029 218.706 181.307 217.643C181.584 216.58 181.502 215.455 181.072 214.444C180.642 213.433 179.889 212.592 178.93 212.055Z" fill="#EA3C12"/>
<path d="M175.661 200.615C175.678 200.408 175.773 200.215 175.927 200.074C176.08 199.933 176.28 199.855 176.489 199.855C176.697 199.855 176.897 199.933 177.051 200.074C177.204 200.215 177.299 200.408 177.316 200.615V207.997H175.661V200.615Z" fill="white"/>
<path opacity="0.999" d="M333.787 208.963H197.665V210.571H333.787V208.963Z" fill="#E6E6E6"/>
<path d="M242.287 213.581C244.392 213.581 246.099 211.875 246.099 209.77C246.099 207.665 244.392 205.959 242.287 205.959C240.182 205.959 238.476 207.665 238.476 209.77C238.476 211.875 240.182 213.581 242.287 213.581Z" fill="#EA3C12"/>
<path d="M242.287 208.963H197.665V210.571H242.287V208.963Z" fill="#EA3C12"/>
<path d="M333.787 254.124H197.665V255.731H333.787V254.124Z" fill="#E6E6E6"/>
<path d="M276.005 258.743C278.11 258.743 279.817 257.037 279.817 254.932C279.817 252.827 278.11 251.12 276.005 251.12C273.9 251.12 272.194 252.827 272.194 254.932C272.194 257.037 273.9 258.743 276.005 258.743Z" fill="#EA3C12"/>
<path d="M276.372 254.124H197.665V255.731H276.372V254.124Z" fill="#EA3C12"/>
<path d="M333.787 296.281H197.665V297.888H333.787V296.281Z" fill="#E6E6E6"/>
<path d="M313.336 300.893C315.441 300.893 317.147 299.186 317.147 297.081C317.147 294.976 315.441 293.27 313.336 293.27C311.231 293.27 309.524 294.976 309.524 297.081C309.524 299.186 311.231 300.893 313.336 300.893Z" fill="#EA3C12"/>
<path d="M313.703 296.281H197.665V297.888H313.703V296.281Z" fill="#EA3C12"/>
<path d="M333.787 338.205H197.665V339.812H333.787V338.205Z" fill="#E6E6E6"/>
<path d="M242.287 342.817C244.392 342.817 246.099 341.11 246.099 339.005C246.099 336.9 244.392 335.194 242.287 335.194C240.182 335.194 238.476 336.9 238.476 339.005C238.476 341.11 240.182 342.817 242.287 342.817Z" fill="#EA3C12"/>
<path d="M242.287 338.205H197.665V339.812H242.287V338.205Z" fill="#EA3C12"/>
<path d="M468.476 312.767C467.921 313.165 467.285 313.436 466.613 313.56C465.941 313.683 465.25 313.657 464.59 313.482C464.004 313.326 463.453 313.056 462.971 312.687C462.489 312.318 462.083 311.858 461.779 311.333C461.474 310.808 461.276 310.228 461.196 309.626C461.115 309.025 461.154 308.413 461.31 307.826C461.326 307.765 461.344 307.705 461.362 307.645C461.431 307.427 461.516 307.216 461.616 307.011L452.528 266.209C452.391 265.742 452.348 265.253 452.401 264.769C452.453 264.285 452.601 263.816 452.835 263.389C453.069 262.962 453.384 262.586 453.764 262.281C454.144 261.977 454.58 261.75 455.047 261.614C455.515 261.479 456.004 261.436 456.488 261.49C456.972 261.543 457.44 261.692 457.866 261.927C458.293 262.162 458.668 262.478 458.972 262.859C459.276 263.239 459.502 263.676 459.636 264.143L459.643 264.167L468.223 305.095C468.867 305.496 469.403 306.05 469.782 306.707C470.162 307.364 470.374 308.105 470.399 308.864C470.424 309.622 470.261 310.375 469.926 311.056C469.591 311.737 469.093 312.325 468.476 312.768L468.476 312.767Z" fill="#FEB8B8"/>
<path d="M480.545 400.311H475.615L473.267 381.297H480.543L480.545 400.311Z" fill="#A0616A"/>
<path d="M481.802 405.09H465.906V404.889C465.906 403.249 466.558 401.675 467.718 400.515C468.878 399.355 470.452 398.703 472.092 398.703H481.801L481.802 405.09Z" fill="#A0616A"/>
<path d="M480.545 400.311H475.615L473.267 381.297H480.543L480.545 400.311Z" fill="#FEB8B8"/>
<path d="M481.802 405.09H465.906V404.889C465.906 403.249 466.558 401.675 467.718 400.515C468.878 399.355 470.452 398.703 472.092 398.703H481.801L481.802 405.09Z" fill="#2F2E41"/>
<path d="M431.124 400.155L426.434 398.637L430.055 379.825L436.979 382.064L431.124 400.155Z" fill="#A0616A"/>
<path d="M430.85 405.088L415.729 400.196L415.789 400.004C416.294 398.443 417.398 397.147 418.859 396.4C420.32 395.653 422.018 395.517 423.579 396.022L432.815 399.01L430.85 405.088Z" fill="#A0616A"/>
<path d="M431.124 400.155L426.434 398.637L430.055 379.825L436.979 382.064L431.124 400.155Z" fill="#FEB8B8"/>
<path d="M430.85 405.088L415.729 400.196L415.789 400.004C416.294 398.443 417.398 397.147 418.859 396.4C420.32 395.653 422.018 395.517 423.579 396.022L432.815 399.01L430.85 405.088Z" fill="#2F2E41"/>
<path d="M452.496 255.197C457.089 255.197 460.812 251.473 460.812 246.88C460.812 242.287 457.089 238.564 452.496 238.564C447.903 238.564 444.18 242.287 444.18 246.88C444.18 251.473 447.903 255.197 452.496 255.197Z" fill="#FEB8B8"/>
<path d="M464.419 279.21C465.575 274.915 460.279 261.443 459.846 259.734C457.782 259.258 452.997 260.171 450.056 259.565C445.874 263.058 442.548 268.05 440.249 270.418C437.859 272.88 436.318 274.549 438.788 280.313C440.611 284.85 441.407 289.736 441.116 294.617L443.112 312.248C443.112 312.248 434.796 335.534 435.461 351.169L427.811 389.425C428.518 390.567 429.626 391.404 430.917 391.773C432.208 392.142 433.591 392.017 434.795 391.421C434.795 391.421 445.773 371.793 444.775 357.49L456.751 330.877C456.751 330.877 465.067 356.159 467.396 358.488L473.384 394.415C473.384 394.415 479.039 396.078 481.7 394.415C481.7 394.415 482.698 359.818 477.043 354.163C477.043 354.163 471.388 330.212 472.719 323.891C474.049 317.57 474.382 307.923 464.402 299.274C464.402 299.274 464.502 299.32 461.409 293.619L464.419 279.21Z" fill="#2F2E41"/>
<path d="M456.834 234.026C456.368 234.027 455.903 234.073 455.445 234.164C454.62 233.764 453.714 233.555 452.796 233.553H452.555C447.914 233.553 444.152 237.753 444.152 242.933H445.708L445.959 241.021L446.327 242.933H447.622C447.219 244.466 447.016 246.044 447.02 247.629V257.179H449.368L450.729 253.642L450.389 257.179H465.502L466.739 253.963L466.43 257.179H468.131V249.683C468.131 241.036 463.073 234.026 456.834 234.026Z" fill="#2F2E41"/>
<path d="M440.236 317.493C439.56 317.594 438.871 317.545 438.217 317.348C437.563 317.151 436.96 316.812 436.453 316.355C436.002 315.948 435.636 315.457 435.375 314.909C435.114 314.361 434.963 313.766 434.932 313.16C434.901 312.554 434.989 311.947 435.192 311.375C435.395 310.803 435.709 310.277 436.115 309.826C436.158 309.779 436.201 309.733 436.245 309.688C436.405 309.525 436.578 309.376 436.761 309.24L447.297 268.788C447.486 267.825 448.05 266.976 448.865 266.428C449.68 265.881 450.679 265.68 451.642 265.869C452.605 266.058 453.454 266.621 454.001 267.436C454.549 268.251 454.75 269.25 454.561 270.213L454.56 270.219L443.513 310.549C443.903 311.2 444.127 311.937 444.164 312.696C444.202 313.454 444.052 314.209 443.728 314.896C443.404 315.582 442.916 316.178 442.307 316.631C441.698 317.084 440.986 317.379 440.236 317.492V317.493Z" fill="#FEB8B8"/>
<path d="M50.95 405.883C52.5658 405.883 53.8757 404.168 53.8757 402.053C53.8757 399.937 52.5658 398.222 50.95 398.222C49.3343 398.222 48.0244 399.937 48.0244 402.053C48.0244 404.168 49.3343 405.883 50.95 405.883Z" fill="#F0F0F0"/>
<path d="M61.9059 359.241C63.8479 356.769 64.9036 353.717 64.9036 350.574C64.9036 347.43 63.8479 344.378 61.9059 341.906L61.9047 341.903C62.3039 341.392 62.6684 340.856 62.9957 340.296L55.3009 339.028L63.6213 339.091C64.4181 337.354 64.8526 335.473 64.8983 333.563C64.9441 331.652 64.6001 329.753 63.8874 327.98L52.734 333.772L63.0245 326.204C62.0606 324.537 60.7636 323.086 59.2143 321.942C57.6651 320.797 55.8967 319.985 54.0195 319.554C52.1423 319.123 50.1966 319.084 48.3034 319.438C46.4103 319.792 44.6105 320.533 43.0161 321.613C41.4217 322.693 40.0669 324.091 39.0362 325.718C38.0055 327.345 37.3209 329.166 37.0252 331.07C36.7295 332.973 36.8289 334.916 37.3173 336.779C37.8057 338.642 38.6726 340.385 39.864 341.898C39.2441 342.685 38.7085 343.536 38.2661 344.435L48.2526 349.622L37.6038 346.075C36.8564 348.285 36.6714 350.645 37.0657 352.944C37.4599 355.243 38.4209 357.407 39.8617 359.241C38.3716 361.136 37.3954 363.384 37.0274 365.766C36.6595 368.149 36.9122 370.586 37.7612 372.843C38.6102 375.099 40.0268 377.098 41.8741 378.647C43.7214 380.197 45.9369 381.243 48.3068 381.686C48.1188 382.21 48.0233 382.763 48.0245 383.319C48.0169 384.141 48.2289 384.95 48.6387 385.662C48.236 386.377 48.0244 387.184 48.0245 388.004C48.0245 388.825 48.2362 389.632 48.639 390.347C48.2365 391.062 48.0249 391.868 48.0245 392.688C48.0242 393.508 48.235 394.314 48.6369 395.029C48.2284 395.741 48.017 396.548 48.0245 397.369C48.0245 399.484 49.3343 401.199 50.9501 401.199C52.5659 401.199 53.8756 399.484 53.8756 397.369C53.4741 396.654 53.2632 395.849 53.2632 395.029C53.2632 394.21 53.4741 393.404 53.8756 392.69C53.8832 391.868 53.671 391.059 53.2612 390.347C53.6639 389.632 53.8756 388.825 53.8756 388.004C53.8757 387.184 53.6642 386.377 53.2615 385.662C53.6712 384.95 53.8833 384.141 53.8756 383.319C53.8769 382.753 53.7781 382.191 53.5837 381.659C55.9391 381.198 58.1366 380.14 59.9655 378.585C61.7945 377.031 63.1937 375.033 64.029 372.783C64.8643 370.533 65.1077 368.106 64.736 365.735C64.3642 363.364 63.3897 361.128 61.9059 359.241Z" fill="#F0F0F0"/>
<path opacity="0.05" d="M36.8667 350.57C36.8608 353.714 37.9172 356.769 39.8646 359.237C38.2388 361.306 37.2277 363.79 36.9468 366.405C36.666 369.021 37.1268 371.663 38.2765 374.029C39.4262 376.395 41.2185 378.39 43.4484 379.786C45.6784 381.182 48.256 381.922 50.8868 381.922C53.5175 381.922 56.0952 381.182 58.3251 379.786C60.5551 378.39 62.3473 376.395 63.497 374.029C64.6467 371.663 65.1075 369.021 64.8267 366.405C64.5458 363.79 63.5347 361.306 61.9089 359.237C63.7863 356.852 36.8667 348.997 36.8667 350.57Z" fill="black"/>
<path d="M27.1117 369.446L27.1079 369.442C27.3302 369.157 27.5333 368.858 27.7156 368.547L23.4285 367.84L28.0649 367.875C28.5087 366.907 28.7506 365.86 28.7761 364.795C28.8015 363.731 28.6098 362.673 28.2128 361.685L21.9991 364.912L27.7324 360.697C27.1953 359.769 26.4727 358.96 25.6096 358.323C24.7464 357.685 23.7611 357.232 22.7153 356.992C21.6694 356.752 20.5853 356.73 19.5306 356.928C18.4759 357.125 17.4731 357.538 16.5848 358.14C15.6965 358.741 14.9416 359.52 14.3674 360.426C13.7931 361.333 13.4117 362.348 13.247 363.408C13.0822 364.468 13.1376 365.551 13.4097 366.589C13.6818 367.627 14.1648 368.598 14.8286 369.441C14.4831 369.88 14.1847 370.353 13.9381 370.854L19.5022 373.744L13.5709 371.768C13.1544 372.999 13.0513 374.315 13.2709 375.595C13.4905 376.876 14.0258 378.082 14.8286 379.104C13.9977 380.159 13.4534 381.412 13.2483 382.739C13.0431 384.067 13.184 385.425 13.6575 386.682C14.1309 387.939 14.9207 389.053 15.9506 389.915C16.9805 390.778 18.2156 391.36 19.5363 391.605C19.4296 391.897 19.3749 392.206 19.3746 392.517C19.6033 392.914 19.7236 393.364 19.7236 393.822C19.7236 394.281 19.6033 394.731 19.3746 395.128C19.6031 395.525 19.7233 395.975 19.7233 396.432C19.7233 396.89 19.6031 397.34 19.3746 397.737C19.6025 398.134 19.7224 398.583 19.7224 399.041C19.7224 399.498 19.6025 399.948 19.3746 400.344C19.6031 400.741 19.7233 401.191 19.7233 401.649C19.7233 402.107 19.6031 402.557 19.3746 402.954C19.3746 404.132 20.1043 405.088 21.0045 405.088C21.9045 405.088 22.6344 404.132 22.6344 402.954C22.4058 402.557 22.2855 402.107 22.2855 401.649C22.2855 401.191 22.4058 400.741 22.6344 400.344C22.4064 399.948 22.2864 399.498 22.2864 399.041C22.2864 398.583 22.4064 398.134 22.6344 397.737C22.4058 397.34 22.2855 396.89 22.2855 396.432C22.2855 395.975 22.4058 395.525 22.6344 395.128C22.4056 394.731 22.2852 394.281 22.2852 393.822C22.2852 393.364 22.4056 392.914 22.6344 392.517C22.634 392.201 22.5771 391.887 22.4666 391.59C23.7799 391.336 25.0056 390.748 26.0261 389.883C27.0466 389.018 27.8275 387.905 28.294 386.651C28.7604 385.397 28.8967 384.045 28.6896 382.723C28.4826 381.401 27.9392 380.155 27.1117 379.104C28.1937 377.727 28.7818 376.026 28.7818 374.275C28.7818 372.524 28.1937 370.823 27.1117 369.446Z" fill="#F0F0F0"/>
<path d="M83.7291 379.855L83.7256 379.851C83.8968 379.632 84.0531 379.402 84.1934 379.162L80.8938 378.62L84.4621 378.647C84.8037 377.903 84.99 377.096 85.0096 376.277C85.0293 375.458 84.8819 374.643 84.5764 373.883L79.7937 376.367L84.2066 373.121C83.7938 372.405 83.2378 371.782 82.5734 371.291C81.9089 370.799 81.1503 370.45 80.3448 370.264C79.5394 370.079 78.7044 370.062 77.8919 370.214C77.0795 370.366 76.3071 370.683 75.6229 371.147C74.9388 371.61 74.3575 372.21 73.9154 372.909C73.4734 373.607 73.18 374.389 73.0536 375.206C72.9273 376.022 72.9706 376.856 73.181 377.656C73.3913 378.455 73.7642 379.202 74.2762 379.851C74.0103 380.189 73.7806 380.553 73.5909 380.939L77.873 383.164L73.3078 381.643C72.9873 382.59 72.908 383.603 73.0771 384.589C73.2462 385.574 73.6583 386.502 74.2763 387.289C73.6366 388.101 73.2176 389.065 73.0596 390.087C72.9015 391.109 73.01 392.154 73.3743 393.122C73.7387 394.09 74.3467 394.947 75.1394 395.611C75.9322 396.275 76.8828 396.723 77.8995 396.912C77.8173 397.137 77.7751 397.374 77.7748 397.614C77.9511 397.919 78.0439 398.266 78.0439 398.619C78.0439 398.972 77.9511 399.318 77.7748 399.624C77.9509 399.929 78.0436 400.275 78.0436 400.628C78.0436 400.98 77.9509 401.327 77.7748 401.632C77.9503 401.937 78.0427 402.283 78.0427 402.635C78.0427 402.987 77.9503 403.333 77.7748 403.638C77.7748 404.546 78.3367 405.281 79.0296 405.281C79.7229 405.281 80.2844 404.546 80.2844 403.638C80.1091 403.333 80.0169 402.987 80.0169 402.635C80.0169 402.283 80.1091 401.938 80.2844 401.632C80.1086 401.327 80.016 400.98 80.016 400.628C80.016 400.275 80.1086 399.929 80.2844 399.624C80.1084 399.318 80.0157 398.971 80.0157 398.619C80.0157 398.266 80.1084 397.919 80.2844 397.614C80.2842 397.37 80.2404 397.128 80.1551 396.9C81.1658 396.704 82.1092 396.251 82.8945 395.585C83.6799 394.919 84.2809 394.063 84.6398 393.098C84.9987 392.133 85.1034 391.091 84.9439 390.074C84.7845 389.057 84.3662 388.098 83.7292 387.289C84.5621 386.229 85.0149 384.92 85.0149 383.572C85.0149 382.224 84.5621 380.915 83.7291 379.855Z" fill="#F0F0F0"/>
<path d="M249.733 76.3621C248.644 76.3569 247.591 75.9745 246.752 75.2798C245.914 74.5851 245.342 73.6211 245.134 72.5521C244.927 71.4832 245.096 70.3753 245.614 69.4172C246.131 68.4592 246.965 67.7102 247.973 67.2979C248.981 66.8856 250.1 66.8356 251.141 67.1562C252.182 67.4768 253.079 68.1483 253.68 69.0563C254.281 69.9643 254.549 71.0526 254.438 72.1359C254.327 73.2191 253.843 74.2303 253.07 74.9971C252.631 75.4327 252.11 75.7775 251.537 76.0117C250.965 76.2459 250.352 76.365 249.733 76.3621Z" fill="white"/>
<path d="M499.328 405.885H0.671774C0.587165 405.894 0.501548 405.885 0.420508 405.859C0.339467 405.833 0.264827 405.79 0.201443 405.734C0.138059 405.677 0.0873617 405.607 0.052653 405.529C0.0179443 405.452 0 405.368 0 405.282C0 405.197 0.0179443 405.113 0.052653 405.035C0.0873617 404.958 0.138059 404.888 0.201443 404.831C0.264827 404.775 0.339467 404.732 0.420508 404.706C0.501548 404.68 0.587165 404.671 0.671774 404.68H499.328C499.413 404.671 499.498 404.68 499.579 404.706C499.66 404.732 499.735 404.775 499.798 404.831C499.862 404.888 499.913 404.958 499.947 405.035C499.982 405.113 500 405.197 500 405.282C500 405.368 499.982 405.452 499.947 405.529C499.913 405.607 499.862 405.677 499.798 405.734C499.735 405.79 499.66 405.833 499.579 405.859C499.498 405.885 499.413 405.894 499.328 405.885Z" fill="#E6E6E6"/>
<path d="M176.501 218.77C177.831 218.77 178.909 217.692 178.909 216.362C178.909 215.032 177.831 213.954 176.501 213.954C175.171 213.954 174.092 215.032 174.092 216.362C174.092 217.692 175.171 218.77 176.501 218.77Z" fill="white"/>
<path d="M182.241 252.488C182.281 253.185 182.178 253.883 181.939 254.538C181.7 255.194 181.329 255.794 180.85 256.301C180.371 256.808 179.793 257.212 179.153 257.489C178.512 257.765 177.821 257.907 177.123 257.907C176.425 257.907 175.735 257.765 175.094 257.489C174.453 257.212 173.876 256.808 173.396 256.301C172.917 255.794 172.547 255.194 172.308 254.538C172.068 253.883 171.966 253.185 172.005 252.488C172.005 249.496 176.822 246.467 176.822 241.048C176.822 238.222 182.241 249.496 182.241 252.488Z" fill="#EA3C12"/>
<path d="M180.195 252.398C180.219 252.816 180.157 253.235 180.013 253.628C179.87 254.022 179.647 254.382 179.36 254.686C179.072 254.99 178.726 255.233 178.341 255.399C177.957 255.564 177.542 255.65 177.124 255.65C176.705 255.65 176.29 255.564 175.906 255.399C175.521 255.233 175.175 254.99 174.887 254.686C174.6 254.382 174.377 254.022 174.234 253.628C174.09 253.235 174.028 252.816 174.052 252.398C174.052 250.602 176.943 248.785 176.943 245.533C176.943 243.837 180.195 250.602 180.195 252.398Z" fill="white"/>
<path d="M176.497 287.146C172.373 287.146 169.049 290.247 169.049 294.082C169.058 295.226 169.353 296.349 169.909 297.348C170.464 298.347 171.262 299.191 172.228 299.802V302.048C172.238 302.321 172.355 302.579 172.555 302.765C172.755 302.952 173.02 303.051 173.293 303.042L173.294 303.042H179.701C179.973 303.051 180.239 302.952 180.439 302.766C180.639 302.58 180.757 302.322 180.766 302.049L180.766 302.048V299.802C181.735 299.193 182.534 298.349 183.091 297.35C183.647 296.35 183.943 295.226 183.951 294.082C183.951 290.247 180.622 287.146 176.497 287.146Z" fill="#EA3C12"/>
<path d="M176.498 288.97C173.32 288.97 170.76 291.36 170.76 294.315C170.766 295.196 170.994 296.061 171.422 296.831C171.85 297.601 172.465 298.251 173.209 298.722V300.452C173.213 300.556 173.237 300.658 173.28 300.753C173.323 300.848 173.385 300.933 173.461 301.005C173.537 301.076 173.626 301.131 173.724 301.168C173.821 301.204 173.925 301.221 174.029 301.217H174.03H178.966C179.176 301.225 179.381 301.149 179.535 301.005C179.689 300.862 179.78 300.663 179.787 300.453V300.452V298.722C180.533 298.252 181.149 297.602 181.578 296.832C182.007 296.062 182.235 295.196 182.241 294.315C182.241 291.36 179.676 288.97 176.498 288.97Z" fill="white"/>
<path d="M173.511 303.968C173.351 303.968 173.198 304.032 173.085 304.145C172.972 304.258 172.909 304.411 172.909 304.57C172.909 304.73 172.972 304.883 173.085 304.996C173.198 305.109 173.351 305.172 173.511 305.172H179.532C179.692 305.172 179.845 305.109 179.958 304.996C180.071 304.883 180.134 304.73 180.134 304.57C180.134 304.411 180.071 304.258 179.958 304.145C179.845 304.032 179.692 303.968 179.532 303.968H173.511Z" fill="#EA3C12"/>
<path d="M173.511 306.377C173.351 306.377 173.198 306.44 173.085 306.553C172.972 306.666 172.909 306.819 172.909 306.979C172.909 307.139 172.972 307.292 173.085 307.405C173.198 307.518 173.351 307.581 173.511 307.581H179.532C179.692 307.581 179.845 307.518 179.958 307.405C180.071 307.292 180.134 307.139 180.134 306.979C180.134 306.819 180.071 306.666 179.958 306.553C179.845 306.44 179.692 306.377 179.532 306.377H173.511Z" fill="#EA3C12"/>
<path d="M180.702 330.16L180.881 329.714C180.946 329.552 180.97 329.376 180.951 329.202C180.932 329.028 180.871 328.862 180.773 328.717C180.675 328.572 180.543 328.453 180.389 328.371C180.234 328.289 180.062 328.247 179.887 328.247H172.603C172.319 328.247 172.047 328.359 171.847 328.56C171.646 328.761 171.533 329.033 171.533 329.316V330.16H180.702Z" fill="#EA3C12"/>
<path d="M179.737 336.519C179.562 336.519 179.39 336.477 179.235 336.395C179.081 336.313 178.949 336.194 178.851 336.049C178.753 335.904 178.692 335.738 178.673 335.564C178.655 335.39 178.679 335.214 178.744 335.052L179.979 331.966H171.533V338.761C171.533 338.902 171.561 339.041 171.615 339.171C171.668 339.3 171.747 339.418 171.847 339.518C171.946 339.617 172.064 339.696 172.194 339.75C172.323 339.803 172.463 339.831 172.603 339.831H173.775C174.059 339.831 174.331 339.944 174.531 340.144C174.732 340.345 174.845 340.617 174.845 340.901V345.234C174.845 345.475 174.926 345.709 175.076 345.898C175.225 346.087 175.434 346.22 175.669 346.275C175.903 346.33 176.15 346.305 176.368 346.203C176.586 346.101 176.764 345.928 176.871 345.712L180.694 338.068C180.775 337.905 180.814 337.723 180.806 337.541C180.797 337.359 180.743 337.182 180.647 337.027C180.551 336.872 180.417 336.744 180.258 336.655C180.099 336.566 179.919 336.519 179.737 336.519Z" fill="#EA3C12"/>
<path d="M172.608 258.811C172.368 258.811 172.138 258.906 171.969 259.075C171.8 259.244 171.705 259.474 171.705 259.714C171.705 259.953 171.8 260.183 171.969 260.352C172.138 260.522 172.368 260.617 172.608 260.617H181.037C181.277 260.617 181.506 260.522 181.676 260.352C181.845 260.183 181.94 259.953 181.94 259.714C181.94 259.474 181.845 259.244 181.676 259.075C181.506 258.906 181.277 258.811 181.037 258.811H172.608Z" fill="#EA3C12"/>
<path d="M172.608 262.423C172.368 262.423 172.138 262.518 171.969 262.688C171.8 262.857 171.705 263.087 171.705 263.326C171.705 263.566 171.8 263.796 171.969 263.965C172.138 264.134 172.368 264.229 172.608 264.229H181.037C181.277 264.229 181.506 264.134 181.676 263.965C181.845 263.796 181.94 263.566 181.94 263.326C181.94 263.087 181.845 262.857 181.676 262.688C181.506 262.518 181.277 262.423 181.037 262.423H172.608Z" fill="#EA3C12"/>
<path d="M252.688 150.13C253.02 150.13 253.29 149.861 253.29 149.528C253.29 149.196 253.02 148.926 252.688 148.926C252.355 148.926 252.085 149.196 252.085 149.528C252.085 149.861 252.355 150.13 252.688 150.13Z" fill="#EA3C12"/>
<path d="M266.118 138.643L250.438 124.169C250.327 124.067 250.181 124.01 250.03 124.01C249.878 124.01 249.733 124.067 249.621 124.17L242.452 130.79V127.852C242.452 127.693 242.388 127.54 242.276 127.427C242.163 127.314 242.009 127.25 241.85 127.25H240.646C240.486 127.25 240.333 127.314 240.22 127.427C240.107 127.54 240.043 127.693 240.043 127.852V133.014L233.947 138.644C233.858 138.726 233.795 138.833 233.768 138.951C233.741 139.069 233.75 139.192 233.794 139.305C233.838 139.418 233.916 139.515 234.016 139.583C234.116 139.651 234.234 139.688 234.355 139.688H237.373C237.533 139.688 237.686 139.751 237.799 139.864C237.912 139.977 237.976 140.13 237.976 140.29V154.975C237.976 155.135 238.039 155.288 238.152 155.401C238.265 155.514 238.418 155.578 238.578 155.578H261.482C261.641 155.578 261.795 155.514 261.907 155.401C262.02 155.288 262.084 155.135 262.084 154.975V140.29C262.084 140.13 262.147 139.977 262.26 139.864C262.373 139.751 262.526 139.688 262.686 139.688H265.71C265.831 139.688 265.949 139.651 266.049 139.583C266.149 139.515 266.227 139.418 266.271 139.305C266.315 139.192 266.324 139.069 266.297 138.951C266.27 138.833 266.207 138.726 266.118 138.643ZM246.658 144.981H253.402C253.561 144.981 253.714 145.044 253.827 145.157C253.94 145.27 254.004 145.423 254.004 145.583V154.373H246.056V145.583C246.056 145.423 246.119 145.27 246.232 145.157C246.345 145.044 246.498 144.981 246.658 144.981Z" fill="#EA3C12"/>
</g>
<defs>
<clipPath id="clip0_1_176">
<rect width="500" height="405.888" fill="white"/>
</clipPath>
</defs>
</svg>
