<svg width="245" height="200" viewBox="0 0 245 200" fill="none" xmlns="http://www.w3.org/2000/svg">
<g clip-path="url(#clip0_1_312)">
<path d="M181.585 156.752H105.918C104.71 156.751 103.551 156.271 102.697 155.416C101.843 154.562 101.362 153.404 101.361 152.196V97.7928C101.362 96.5847 101.843 95.4265 102.697 94.5723C103.551 93.7181 104.71 93.2376 105.918 93.2362H181.585C182.793 93.2376 183.951 93.7181 184.805 94.5723C185.659 95.4266 186.14 96.5847 186.141 97.7928V152.196C186.14 153.404 185.659 154.562 184.805 155.416C183.951 156.271 182.793 156.751 181.585 156.752Z" fill="#E6E6E6"/>
<path d="M107.316 153.12H180.186C180.772 153.12 181.334 152.887 181.748 152.473C182.163 152.059 182.395 151.497 182.395 150.911V99.0777C182.395 98.4917 182.163 97.9298 181.748 97.5155C181.334 97.1012 180.772 96.8684 180.186 96.8684H107.316C106.73 96.8684 106.168 97.1012 105.754 97.5155C105.34 97.9298 105.107 98.4917 105.107 99.0777V150.911C105.107 151.497 105.34 152.059 105.754 152.473C106.168 152.887 106.73 153.12 107.316 153.12Z" fill="white"/>
<path d="M80.2236 83.7156H4.55659C3.34853 83.7142 2.19033 83.2337 1.3361 82.3795C0.481871 81.5253 0.00136463 80.3671 0 79.159V24.7561C0.0013639 23.548 0.481871 22.3898 1.3361 21.5356C2.19033 20.6813 3.34853 20.2008 4.55659 20.1995H80.2236C81.4317 20.2008 82.5899 20.6813 83.4441 21.5356C84.2984 22.3898 84.7789 23.548 84.7802 24.7561V79.159C84.7789 80.3671 84.2984 81.5253 83.4441 82.3795C82.5899 83.2337 81.4317 83.7142 80.2236 83.7156Z" fill="#E6E6E6"/>
<path d="M5.95525 80.0833H78.825C79.4109 80.0833 79.9729 79.8505 80.3872 79.4362C80.8015 79.0219 81.0343 78.46 81.0343 77.874V26.0409C81.0343 25.455 80.8015 24.8931 80.3872 24.4787C79.9729 24.0644 79.4109 23.8317 78.825 23.8317H5.95525C5.36932 23.8317 4.80739 24.0644 4.39307 24.4787C3.97875 24.8931 3.74599 25.455 3.74599 26.0409V77.874C3.74599 78.46 3.97875 79.0219 4.39307 79.4362C4.80739 79.8505 5.36932 80.0833 5.95525 80.0833Z" fill="white"/>
<path d="M171.5 112.974H124.954C124.735 112.974 124.519 113.017 124.317 113.101C124.116 113.184 123.932 113.307 123.778 113.461C123.624 113.615 123.501 113.799 123.418 114C123.334 114.202 123.291 114.418 123.291 114.636C123.291 114.855 123.334 115.071 123.418 115.273C123.501 115.474 123.624 115.657 123.778 115.812C123.932 115.966 124.116 116.089 124.317 116.172C124.519 116.256 124.735 116.299 124.954 116.299H171.5C171.941 116.299 172.364 116.124 172.675 115.812C172.987 115.5 173.162 115.077 173.162 114.636C173.162 114.195 172.987 113.773 172.675 113.461C172.364 113.149 171.941 112.974 171.5 112.974Z" fill="#E6E6E6"/>
<path d="M124.954 123.204C124.735 123.204 124.519 123.247 124.317 123.331C124.116 123.414 123.932 123.537 123.778 123.691C123.624 123.845 123.501 124.029 123.418 124.23C123.334 124.432 123.291 124.648 123.291 124.866C123.291 125.085 123.334 125.301 123.418 125.503C123.501 125.704 123.624 125.887 123.778 126.042C123.932 126.196 124.116 126.319 124.317 126.402C124.519 126.486 124.735 126.529 124.954 126.529H171.5C171.941 126.529 172.364 126.354 172.675 126.042C172.987 125.73 173.162 125.307 173.162 124.866C173.162 124.425 172.987 124.003 172.675 123.691C172.364 123.379 171.941 123.204 171.5 123.204H124.954Z" fill="#E6E6E6"/>
<path d="M124.954 133.434C124.513 133.434 124.09 133.609 123.778 133.921C123.466 134.233 123.291 134.656 123.291 135.096C123.291 135.537 123.466 135.96 123.778 136.272C124.09 136.584 124.513 136.759 124.954 136.759H171.5C171.941 136.759 172.364 136.584 172.675 136.272C172.987 135.96 173.162 135.537 173.162 135.096C173.162 134.656 172.987 134.233 172.675 133.921C172.364 133.609 171.941 133.434 171.5 133.434H124.954Z" fill="#E6E6E6"/>
<path d="M116.13 116.81C117.26 116.81 118.176 115.894 118.176 114.764C118.176 113.634 117.26 112.718 116.13 112.718C115 112.718 114.084 113.634 114.084 114.764C114.084 115.894 115 116.81 116.13 116.81Z" fill="#EA3C12"/>
<path d="M116.13 127.04C117.26 127.04 118.176 126.124 118.176 124.994C118.176 123.864 117.26 122.948 116.13 122.948C115 122.948 114.084 123.864 114.084 124.994C114.084 126.124 115 127.04 116.13 127.04Z" fill="#E6E6E6"/>
<path d="M116.13 137.27C117.26 137.27 118.176 136.354 118.176 135.224C118.176 134.094 117.26 133.178 116.13 133.178C115 133.178 114.084 134.094 114.084 135.224C114.084 136.354 115 137.27 116.13 137.27Z" fill="#E6E6E6"/>
<path d="M152.958 114.636C152.958 114.855 152.915 115.071 152.832 115.273C152.748 115.474 152.626 115.657 152.471 115.812C152.317 115.966 152.134 116.089 151.932 116.172C151.73 116.256 151.514 116.299 151.296 116.299H125.013C124.603 116.305 124.204 116.162 123.89 115.897C123.576 115.632 123.369 115.263 123.306 114.857C123.275 114.622 123.294 114.384 123.363 114.157C123.431 113.93 123.547 113.721 123.703 113.543C123.859 113.364 124.051 113.221 124.267 113.123C124.483 113.025 124.717 112.974 124.954 112.974H151.296C151.737 112.974 152.159 113.149 152.471 113.461C152.783 113.773 152.958 114.195 152.958 114.636Z" fill="#EA3C12"/>
<path d="M143.751 86.2481C147.424 86.2481 150.401 83.271 150.401 79.5986C150.401 75.9262 147.424 72.9491 143.751 72.9491C140.079 72.9491 137.102 75.9262 137.102 79.5986C137.102 83.271 140.079 86.2481 143.751 86.2481Z" fill="#E6E6E6"/>
<path d="M147.033 80.1312C147.327 78.3187 146.096 76.611 144.284 76.3168C142.471 76.0227 140.763 77.2536 140.469 79.0661C140.175 80.8786 141.406 82.5863 143.219 82.8805C145.031 83.1746 146.739 81.9437 147.033 80.1312Z" fill="white"/>
<path d="M11.342 50.3779C10.9051 50.3779 10.486 50.5515 10.1771 50.8605C9.86811 51.1694 9.69454 51.5885 9.69454 52.0254C9.69454 52.4623 9.86811 52.8814 10.1771 53.1903C10.486 53.4993 10.9051 53.6728 11.342 53.6728H73.4382C73.8752 53.6728 74.2942 53.4993 74.6032 53.1903C74.9121 52.8814 75.0857 52.4623 75.0857 52.0254C75.0857 51.5885 74.9121 51.1694 74.6032 50.8605C74.2942 50.5515 73.8752 50.3779 73.4382 50.3779H11.342Z" fill="#E6E6E6"/>
<path d="M11.342 60.5161C10.9051 60.5161 10.486 60.6897 10.1771 60.9986C9.86811 61.3076 9.69454 61.7266 9.69454 62.1636C9.69454 62.6005 9.86811 63.0195 10.1771 63.3285C10.486 63.6375 10.9051 63.811 11.342 63.811H73.4382C73.8752 63.811 74.2942 63.6375 74.6032 63.3285C74.9121 63.0195 75.0857 62.6005 75.0857 62.1636C75.0857 61.7266 74.9121 61.3076 74.6032 60.9986C74.2942 60.6897 73.8752 60.5161 73.4382 60.5161H11.342Z" fill="#E6E6E6"/>
<path d="M39.0952 71.1613C38.6583 71.1613 38.2393 71.3348 37.9303 71.6438C37.6213 71.9527 37.4478 72.3718 37.4478 72.8087C37.4478 73.2456 37.6213 73.6647 37.9303 73.9736C38.2393 74.2826 38.6583 74.4562 39.0952 74.4562H45.685C46.122 74.4562 46.541 74.2826 46.8499 73.9736C47.1589 73.6647 47.3325 73.2456 47.3325 72.8087C47.3325 72.3718 47.1589 71.9527 46.8499 71.6438C46.541 71.3348 46.122 71.1613 45.685 71.1613H39.0952Z" fill="#EA3C12"/>
<path d="M33.5598 29.459C33.4254 29.4591 33.2966 29.5126 33.2015 29.6076C33.1065 29.7026 33.053 29.8315 33.0529 29.9659V42.8338C33.053 42.9682 33.1065 43.097 33.2015 43.1921C33.2966 43.2871 33.4254 43.3405 33.5598 43.3407H51.2204C51.3548 43.3405 51.4837 43.2871 51.5787 43.1921C51.6737 43.097 51.7272 42.9682 51.7273 42.8338V29.9659C51.7272 29.8315 51.6737 29.7026 51.5787 29.6076C51.4837 29.5126 51.3548 29.4591 51.2204 29.459L33.5598 29.459Z" fill="#EA3C12"/>
<path d="M42.3901 37.7647C43.9299 37.7647 45.1781 36.5165 45.1781 34.9767C45.1781 33.4369 43.9299 32.1887 42.3901 32.1887C40.8504 32.1887 39.6021 33.4369 39.6021 34.9767C39.6021 36.5165 40.8504 37.7647 42.3901 37.7647Z" fill="white"/>
<path d="M46.9523 42.0734C46.9533 42.514 46.849 42.9485 46.6482 43.3407H38.1321C37.9151 42.9156 37.8108 42.442 37.8293 41.9651C37.8478 41.4882 37.9884 41.024 38.2377 40.617C38.487 40.2101 38.8365 39.8739 39.253 39.6407C39.6694 39.4076 40.1387 39.2852 40.6159 39.2854H44.1643C44.9033 39.285 45.6122 39.5782 46.1351 40.1004C46.6579 40.6227 46.9519 41.3312 46.9523 42.0702V42.0734Z" fill="white"/>
<path d="M42.3901 37.7647C43.9299 37.7647 45.1781 36.5165 45.1781 34.9767C45.1781 33.4369 43.9299 32.1887 42.3901 32.1887C40.8504 32.1887 39.6021 33.4369 39.6021 34.9767C39.6021 36.5165 40.8504 37.7647 42.3901 37.7647Z" fill="white"/>
<path d="M46.9523 42.0734C46.9533 42.514 46.849 42.9485 46.6482 43.3407H38.1321C37.9151 42.9156 37.8108 42.442 37.8293 41.9651C37.8478 41.4882 37.9884 41.024 38.2377 40.617C38.487 40.2101 38.8365 39.8739 39.253 39.6407C39.6694 39.4076 40.1387 39.2852 40.6159 39.2854H44.1643C44.9033 39.285 45.6122 39.5782 46.1351 40.1004C46.6579 40.6227 46.9519 41.3312 46.9523 42.0702V42.0734Z" fill="white"/>
<path d="M42.3901 13.1796C46.0296 13.1796 48.9799 10.2293 48.9799 6.58981C48.9799 2.95036 46.0296 0 42.3901 0C38.7507 0 35.8003 2.95036 35.8003 6.58981C35.8003 10.2293 38.7507 13.1796 42.3901 13.1796Z" fill="#E6E6E6"/>
<path d="M42.3901 9.88473C44.2098 9.88473 45.685 8.40955 45.685 6.58982C45.685 4.7701 44.2098 3.29492 42.3901 3.29492C40.5704 3.29492 39.0952 4.7701 39.0952 6.58982C39.0952 8.40955 40.5704 9.88473 42.3901 9.88473Z" fill="#EA3C12"/>
<path d="M206.598 196.414L203.441 196.414L201.94 184.236L206.599 184.237L206.598 196.414Z" fill="#FFB8B8"/>
<path d="M201.186 195.512H207.275V199.345H197.353C197.353 198.842 197.452 198.343 197.644 197.878C197.837 197.413 198.119 196.991 198.475 196.635C198.831 196.279 199.254 195.996 199.719 195.804C200.184 195.611 200.683 195.512 201.186 195.512Z" fill="#2F2E41"/>
<path d="M223.616 196.414L220.458 196.414L218.957 184.236L223.617 184.237L223.616 196.414Z" fill="#FFB8B8"/>
<path d="M218.203 195.512H224.292V199.345H214.37C214.37 198.842 214.469 198.343 214.662 197.878C214.854 197.413 215.137 196.991 215.493 196.635C215.849 196.279 216.271 195.996 216.736 195.804C217.201 195.611 217.7 195.512 218.203 195.512Z" fill="#2F2E41"/>
<path d="M214.37 109.846C218.116 109.846 221.152 106.809 221.152 103.063C221.152 99.317 218.116 96.2803 214.37 96.2803C210.624 96.2803 207.587 99.317 207.587 103.063C207.587 106.809 210.624 109.846 214.37 109.846Z" fill="#FFB8B8"/>
<path d="M191.177 147.297C191.225 146.922 191.354 146.561 191.556 146.241C191.757 145.921 192.027 145.648 192.345 145.444C192.664 145.239 193.023 145.106 193.398 145.055C193.773 145.004 194.155 145.036 194.517 145.149L198.307 140.605L201.63 142.235L196.187 148.577C195.958 149.172 195.518 149.661 194.952 149.954C194.385 150.246 193.731 150.32 193.114 150.162C192.496 150.005 191.958 149.626 191.601 149.098C191.244 148.57 191.093 147.929 191.177 147.297Z" fill="#FFB8B8"/>
<path d="M223.801 151.893C223.639 151.551 223.555 151.177 223.553 150.798C223.552 150.42 223.633 150.046 223.792 149.702C223.951 149.358 224.183 149.054 224.472 148.809C224.762 148.565 225.101 148.387 225.466 148.288L226.227 142.42L229.906 142.013L228.715 150.285C228.841 150.91 228.732 151.559 228.411 152.11C228.09 152.66 227.578 153.074 226.972 153.272C226.366 153.47 225.709 153.439 225.124 153.185C224.54 152.931 224.069 152.471 223.801 151.893Z" fill="#FFB8B8"/>
<path d="M220.038 115.874C220.399 115.411 220.875 115.051 221.419 114.831C221.964 114.611 222.556 114.538 223.137 114.62C223.719 114.702 224.268 114.936 224.73 115.299C225.192 115.661 225.55 116.138 225.768 116.683L231.328 130.558C231.896 131.975 232.077 133.519 231.853 135.03L230.042 147.224C230.018 147.382 229.961 147.532 229.874 147.665C229.788 147.798 229.673 147.911 229.538 147.996C229.404 148.081 229.253 148.136 229.095 148.157C228.937 148.178 228.777 148.165 228.625 148.118L226.239 147.385C225.992 147.309 225.779 147.149 225.638 146.933C225.497 146.716 225.436 146.457 225.466 146.201C226.308 139.021 225.195 131.748 222.245 125.149L219.624 119.286C219.377 118.734 219.285 118.124 219.358 117.523C219.431 116.922 219.666 116.352 220.038 115.874Z" fill="#EA3C12"/>
<path d="M216.021 109.845C217.042 109.868 218.056 109.673 218.996 109.276C219.937 108.878 220.782 108.286 221.477 107.538C222.173 106.79 222.702 105.904 223.03 104.937C223.358 103.97 223.478 102.944 223.382 101.928C223.286 100.911 222.975 99.9268 222.471 99.0388C221.967 98.1507 221.281 97.3794 220.458 96.7754C219.635 96.1715 218.693 95.7486 217.694 95.5346C216.696 95.3205 215.664 95.3202 214.665 95.5336C213.174 94.6279 211.439 94.0185 209.701 94.1735C207.963 94.3285 206.244 95.3604 205.594 96.9798C204.944 98.5993 205.643 100.734 207.259 101.392C208.295 101.814 209.465 101.609 210.571 101.439C211.676 101.269 212.882 101.158 213.845 101.729C214.807 102.299 215.24 103.829 214.378 104.542C213.921 104.935 213.595 105.458 213.443 106.041C213.29 106.625 213.319 107.24 213.526 107.806C213.959 108.927 215.141 109.826 216.021 109.845Z" fill="#2F2E41"/>
<path d="M224.436 147.029L225.64 192.689C225.644 192.841 225.616 192.992 225.559 193.134C225.501 193.275 225.416 193.402 225.307 193.509C225.198 193.615 225.068 193.698 224.926 193.751C224.783 193.805 224.631 193.829 224.479 193.821L220.516 193.619C220.263 193.606 220.022 193.507 219.834 193.337C219.645 193.168 219.521 192.939 219.481 192.689L214.767 163.033C214.746 162.906 214.683 162.79 214.586 162.705C214.49 162.62 214.367 162.572 214.238 162.568C214.11 162.564 213.984 162.604 213.883 162.683C213.781 162.762 213.71 162.874 213.682 162.999L207.301 191.553C207.267 191.705 207.201 191.849 207.107 191.974C207.013 192.099 206.894 192.203 206.757 192.279C206.62 192.354 206.469 192.4 206.313 192.413C206.157 192.426 206 192.405 205.853 192.353L201.919 192.112C201.692 192.032 201.497 191.878 201.365 191.676C201.233 191.474 201.17 191.234 201.187 190.993L204.621 146.597L224.436 147.029Z" fill="#2F2E41"/>
<path d="M226.367 125.342C227.031 118.423 221.943 112.165 215.01 111.672C212.023 111.46 207.385 111.384 205.856 115.3C201.25 127.096 209.313 126.809 206.535 137.029C203.757 147.249 201.304 147.834 205.115 148.572C208.926 149.31 226.066 153.667 225.362 146.474C224.93 142.052 225.705 132.244 226.367 125.342Z" fill="#EA3C12"/>
<path d="M206.671 114.1C207.219 113.888 207.812 113.825 208.392 113.915C208.972 114.006 209.518 114.248 209.974 114.618C210.431 114.987 210.782 115.47 210.992 116.018C211.202 116.566 211.264 117.16 211.171 117.739L209.006 131.269C208.636 133.582 207.658 135.756 206.171 137.567L199.141 146.134C199.04 146.257 198.913 146.357 198.77 146.427C198.627 146.496 198.471 146.534 198.312 146.538C198.153 146.542 197.995 146.511 197.849 146.448C197.703 146.385 197.572 146.291 197.466 146.173L195.796 144.318C195.623 144.126 195.523 143.88 195.513 143.621C195.503 143.363 195.584 143.11 195.742 142.905L196.234 142.267C200.324 136.959 202.904 130.644 203.702 123.991L204.563 116.815C204.635 116.214 204.869 115.643 205.241 115.165C205.612 114.687 206.107 114.319 206.671 114.1Z" fill="#EA3C12"/>
<path d="M243.766 200H172.518C172.444 200 172.374 199.971 172.322 199.919C172.271 199.867 172.241 199.797 172.241 199.724C172.241 199.651 172.271 199.58 172.322 199.529C172.374 199.477 172.444 199.448 172.518 199.448H243.766C243.839 199.448 243.91 199.477 243.961 199.529C244.013 199.58 244.042 199.651 244.042 199.724C244.042 199.797 244.013 199.867 243.961 199.919C243.91 199.971 243.839 200 243.766 200Z" fill="#CCCCCC"/>
</g>
<defs>
<clipPath id="clip0_1_312">
<rect width="244.042" height="200" fill="white"/>
</clipPath>
</defs>
</svg>
