<svg width="279" height="200" viewBox="0 0 279 200" fill="none" xmlns="http://www.w3.org/2000/svg">
<g clip-path="url(#clip0_1_395)">
<path d="M37.8049 199.302C37.8016 199.312 37.8016 199.325 37.7983 199.335H16.263C15.8576 199.08 15.4588 198.814 15.0667 198.545C12.6455 196.904 10.4094 195.006 8.39779 192.882C6.09179 190.426 4.18667 187.621 2.75228 184.572C-0.0887551 178.511 -0.962662 171.616 1.23706 165.386L1.23729 165.385L1.23801 165.384L1.2391 165.383L1.24038 165.383C1.29355 165.226 1.35336 165.067 1.41317 164.907C1.50289 165.064 1.58928 165.216 1.68232 165.369L1.68564 165.373C2.92032 167.45 4.32045 169.425 5.87242 171.277V171.281C5.99206 171.424 6.11167 171.566 6.23461 171.706L6.23485 171.707L6.23556 171.708L6.23665 171.709L6.23794 171.709C10.0064 176.115 14.5592 179.783 19.6655 182.528C19.6822 182.538 19.6954 182.545 19.7121 182.555C19.7291 182.565 19.7469 182.574 19.7652 182.582C19.7686 182.585 19.7719 182.585 19.7752 182.588C20.9083 183.2 22.0713 183.758 23.2542 184.263V184.266C24.1846 184.668 25.1316 185.034 26.0853 185.373C28.1189 186.087 30.3119 186.739 32.2591 187.679C34.1531 188.593 35.8212 189.779 36.9078 191.563C36.9908 191.71 37.0739 191.852 37.1503 191.999L36.5157 196.391L37.7817 196.385L37.6621 198.545L37.6288 199.169L37.8049 199.302Z" fill="#F0F0F0"/>
<path d="M32.4884 199.335H32.0332C31.99 199.07 31.9468 198.807 31.8969 198.545C31.7679 197.826 31.5925 197.117 31.3719 196.421C31.2722 196.109 31.1593 195.803 31.0297 195.501C30.2953 193.78 29.0327 192.268 27.1652 191.763C26.6216 191.618 26.0628 191.539 25.5005 191.527C24.3873 191.48 23.2575 191.623 22.1511 191.683C21.8786 191.696 21.6028 191.706 21.337 191.703H21.3303C19.8913 191.727 18.4641 191.439 17.1469 190.859C15.52 190.08 14.0387 189.028 12.7673 187.749C11.9354 186.952 11.1446 186.114 10.3981 185.237V185.233C10.2985 185.124 10.2021 185.011 10.1058 184.894C8.34645 182.78 6.80878 180.491 5.51691 178.063C4.85827 176.835 4.26703 175.573 3.74583 174.281C3.73892 174.27 3.73335 174.257 3.72921 174.245C2.56313 171.396 1.72698 168.424 1.23708 165.386L1.23732 165.385L1.23803 165.384L1.23912 165.383L1.24041 165.383C1.21384 165.246 1.1939 165.107 1.17395 164.971C1.13075 164.688 1.57934 164.675 1.61921 164.957C1.63915 165.097 1.65908 165.23 1.68234 165.369L1.68567 165.373C2.15717 168.282 2.94836 171.13 4.04488 173.866V173.869C4.10139 174.009 4.15786 174.145 4.21435 174.281C5.77409 178.064 7.90931 181.584 10.5444 184.715L10.5477 184.722C10.5743 184.755 10.6042 184.785 10.6341 184.818C10.6353 184.819 10.6363 184.821 10.6369 184.823C10.6374 184.824 10.6376 184.826 10.6374 184.828C10.6407 184.825 10.6407 184.828 10.6407 184.828C11.2555 185.556 11.9001 186.253 12.5713 186.931C13.8124 188.243 15.2522 189.35 16.8378 190.214C18.1618 190.892 19.6268 191.25 21.1143 191.258C21.2639 191.258 21.4134 191.261 21.5629 191.258C21.6825 191.258 21.8022 191.254 21.9218 191.248C23.0482 191.194 24.1913 191.052 25.3244 191.071C25.8397 191.081 26.3532 191.135 26.8595 191.231C27.6912 191.409 28.4758 191.761 29.1618 192.264C29.8479 192.767 30.4199 193.409 30.8403 194.148C31.263 194.863 31.5998 195.625 31.8438 196.418C31.9269 196.677 31.9966 196.94 32.0664 197.205V197.209C32.1728 197.634 32.2658 198.066 32.3455 198.501C32.3494 198.515 32.3516 198.53 32.3522 198.545C32.402 198.807 32.4452 199.073 32.4884 199.335Z" fill="white"/>
<path d="M10.5686 185.112C9.42967 185.96 8.02626 186.376 6.60903 186.285C5.1918 186.194 3.85304 185.602 2.83185 184.616C2.62591 184.415 2.92764 184.086 3.13386 184.286C4.0831 185.207 5.3302 185.758 6.6501 185.84C7.97 185.922 9.27573 185.53 10.3316 184.734C10.5613 184.561 10.797 184.94 10.5686 185.112Z" fill="white"/>
<path d="M21.0955 191.395C21.5414 188.526 20.8897 185.595 19.2704 183.185C19.1098 182.947 19.4885 182.71 19.6489 182.948C21.3294 185.459 22.0014 188.511 21.5308 191.495C21.4857 191.779 21.0507 191.678 21.0955 191.395Z" fill="white"/>
<path d="M3.92442 173.929C4.43351 173.692 4.87591 173.333 5.2119 172.884C5.5479 172.434 5.76696 171.908 5.84941 171.353C5.89084 171.068 6.32582 171.17 6.28466 171.453C6.19071 172.066 5.94808 172.646 5.57796 173.144C5.20784 173.642 4.7215 174.041 4.16143 174.307C4.11074 174.337 4.0507 174.346 3.99354 174.333C3.93637 174.32 3.88636 174.285 3.85365 174.236C3.82252 174.186 3.81249 174.126 3.82575 174.068C3.839 174.01 3.87445 173.96 3.92442 173.929Z" fill="white"/>
<path d="M41.0547 184.718L40.8719 186.403L37.9644 186.36L37.5258 189.397L37.4494 189.918V189.922L37.1503 191.999L36.5157 196.391L37.7817 196.385L37.662 198.545L37.6288 199.169L37.8049 199.302L37.8448 199.335L37.8581 199.345C37.8215 199.418 37.7817 199.492 37.7418 199.568C37.765 199.488 37.7817 199.415 37.7983 199.335H29.3848C29.2287 199.073 29.0758 198.81 28.9263 198.545C27.628 196.285 26.4834 193.94 25.5004 191.527C25.4406 191.377 25.3775 191.228 25.3243 191.075V191.072C24.4503 188.863 23.758 186.587 23.2542 184.266V184.263C22.9812 182.992 22.7738 181.708 22.6328 180.415C22.2726 177.075 22.4397 173.699 23.1279 170.41C23.1335 170.394 23.1379 170.377 23.1412 170.36C24.467 164.083 27.7002 158.282 32.8207 154.607C33.0333 154.447 33.2526 154.298 33.4753 154.151C33.4786 154.148 33.4786 154.148 33.4819 154.148C33.4823 154.148 33.4828 154.148 33.4832 154.148C33.4836 154.148 33.484 154.147 33.4843 154.147C33.4846 154.147 33.4848 154.146 33.485 154.146C33.4852 154.146 33.4852 154.145 33.4852 154.145C33.6248 154.055 33.761 153.965 33.9006 153.876C33.8806 154.055 33.8574 154.234 33.8408 154.414C33.5723 156.814 33.5012 159.232 33.6281 161.644V161.651C33.6314 161.837 33.6414 162.023 33.6547 162.213V162.219C34.0169 168.014 35.4488 173.692 37.878 178.966C37.8821 178.98 37.8877 178.994 37.8946 179.006C37.9013 179.023 37.9079 179.036 37.9146 179.053C38.8233 181.015 39.8727 182.908 41.0547 184.718Z" fill="#F0F0F0"/>
<path d="M34.0396 154.039C33.973 154.162 33.9037 154.289 33.841 154.414C33.3447 155.352 32.888 156.311 32.4706 157.289C31.7248 159.018 31.1044 160.798 30.6143 162.615C30.5746 162.757 30.5354 162.902 30.4996 163.046C29.4639 167.011 29.0495 171.113 29.2714 175.206C29.2716 175.246 29.2745 175.283 29.278 175.323C29.3309 176.278 29.4225 177.23 29.5529 178.178C29.7536 179.972 30.2355 181.724 30.9807 183.368C31.085 183.583 31.1953 183.793 31.311 183.996C31.5991 184.491 31.9334 184.959 32.3096 185.392C32.5808 185.708 32.873 186.006 33.1843 186.283C33.372 186.453 33.5656 186.619 33.768 186.776C33.8848 186.868 34.0049 186.958 34.125 187.049C34.2242 187.116 34.3207 187.187 34.4199 187.254C35.4516 187.961 36.5642 188.589 37.5259 189.398L37.4504 189.92C36.5131 189.076 35.3818 188.438 34.3415 187.74C33.6895 187.309 33.0792 186.818 32.5183 186.273C32.4447 186.198 32.3679 186.124 32.297 186.045C31.9174 185.654 31.5746 185.228 31.2729 184.774C31.1194 184.548 30.9745 184.313 30.8378 184.067C30.0118 182.466 29.4638 180.736 29.217 178.951C29.0322 177.812 28.9048 176.665 28.8354 175.513C28.8232 175.364 28.8148 175.217 28.8091 175.066C28.679 172.319 28.8295 169.566 29.2584 166.85C29.7999 163.405 30.7814 160.043 32.1789 156.847C32.578 155.932 33.0132 155.032 33.4846 154.145C33.5446 154.023 33.6085 153.904 33.675 153.782C33.8103 153.529 34.1749 153.787 34.0396 154.039Z" fill="white"/>
<path d="M29.0475 175.52C27.6274 175.511 26.2565 174.998 25.1797 174.072C24.1029 173.146 23.3902 171.868 23.169 170.465C23.1253 170.181 23.5645 170.1 23.6084 170.384C23.8119 171.691 24.4759 172.882 25.4803 173.742C26.4848 174.602 27.7637 175.075 29.0862 175.075C29.3735 175.075 29.3332 175.52 29.0475 175.52Z" fill="white"/>
<path d="M33.67 186.874C35.7531 184.852 36.9976 182.119 37.1553 179.22C37.1707 178.933 37.6156 178.972 37.6003 179.259C37.4305 182.275 36.1296 185.116 33.9573 187.216C33.7501 187.416 33.4639 187.073 33.67 186.874Z" fill="white"/>
<path d="M30.4756 162.59C31.0244 162.708 31.5939 162.687 32.1329 162.531C32.6718 162.374 33.1634 162.086 33.5636 161.692C33.7681 161.49 34.0541 161.833 33.8508 162.034C33.4067 162.467 32.8634 162.784 32.2683 162.959C31.6732 163.133 31.0445 163.159 30.437 163.035C30.3787 163.028 30.3253 162.999 30.2876 162.954C30.2498 162.909 30.2306 162.852 30.2338 162.793C30.2393 162.734 30.2677 162.68 30.313 162.642C30.3582 162.604 30.4167 162.585 30.4756 162.59Z" fill="white"/>
<path d="M99.231 199.605C99.2312 199.657 99.2211 199.708 99.2013 199.756C99.1814 199.804 99.1523 199.848 99.1156 199.885C99.0788 199.921 99.0352 199.95 98.9871 199.97C98.9391 199.99 98.8876 200 98.8356 200H5.69965C5.64772 200 5.5963 199.99 5.54833 199.97C5.50035 199.95 5.45676 199.921 5.42004 199.884C5.38333 199.848 5.3542 199.804 5.33433 199.756C5.31446 199.708 5.30423 199.657 5.30423 199.605C5.30423 199.553 5.31446 199.501 5.33433 199.453C5.3542 199.405 5.38333 199.362 5.42004 199.325C5.45676 199.288 5.50035 199.259 5.54833 199.239C5.5963 199.219 5.64772 199.209 5.69965 199.209H98.8356C98.8876 199.209 98.9391 199.219 98.9871 199.239C99.0352 199.259 99.0788 199.288 99.1156 199.325C99.1523 199.361 99.1814 199.405 99.2012 199.453C99.2211 199.501 99.2312 199.553 99.231 199.605Z" fill="#CCCCCC"/>
<path d="M260.413 36.8564H200.198C199.939 36.8567 199.684 36.8061 199.445 36.7076C199.207 36.6091 198.99 36.4645 198.807 36.2821C198.625 36.0997 198.48 35.8831 198.381 35.6446C198.282 35.4062 198.231 35.1506 198.231 34.8925C198.231 34.6344 198.282 34.3788 198.381 34.1404C198.48 33.902 198.625 33.6854 198.807 33.503C198.99 33.3206 199.207 33.176 199.445 33.0775C199.684 32.9789 199.939 32.9284 200.198 32.9287H260.413C260.671 32.9284 260.927 32.9789 261.165 33.0775C261.404 33.176 261.621 33.3206 261.803 33.503C261.986 33.6854 262.131 33.902 262.23 34.1404C262.328 34.3788 262.379 34.6344 262.379 34.8925C262.379 35.1506 262.328 35.4062 262.23 35.6446C262.131 35.8831 261.986 36.0997 261.803 36.2821C261.621 36.4645 261.404 36.6091 261.165 36.7076C260.927 36.8061 260.671 36.8567 260.413 36.8564Z" fill="#EA3C12"/>
<path d="M260.413 44.6164H200.198C199.677 44.6158 199.178 44.4086 198.81 44.0403C198.443 43.6721 198.236 43.1729 198.236 42.6525C198.236 42.1321 198.443 41.633 198.81 41.2647C199.178 40.8965 199.677 40.6893 200.198 40.6886H260.413C260.933 40.6893 261.432 40.8965 261.8 41.2647C262.168 41.633 262.374 42.1321 262.374 42.6525C262.374 43.1729 262.168 43.6721 261.8 44.0403C261.432 44.4086 260.933 44.6158 260.413 44.6164Z" fill="#EA3C12"/>
<path d="M226.299 52.3764H200.198C199.677 52.3758 199.178 52.1686 198.81 51.8003C198.443 51.4321 198.236 50.9329 198.236 50.4125C198.236 49.8921 198.443 49.393 198.81 49.0247C199.178 48.6565 199.677 48.4493 200.198 48.4486H226.299C226.558 48.4483 226.813 48.4988 227.052 48.5974C227.29 48.6959 227.507 48.8405 227.69 49.0229C227.872 49.2053 228.017 49.4219 228.116 49.6604C228.215 49.8988 228.266 50.1544 228.266 50.4125C228.266 50.6706 228.215 50.9262 228.116 51.1647C228.017 51.4031 227.872 51.6197 227.69 51.8021C227.507 51.9845 227.29 52.1291 227.052 52.2277C226.813 52.3262 226.558 52.3768 226.299 52.3764Z" fill="#EA3C12"/>
<path d="M260.413 80.9883H200.198C199.677 80.9883 199.177 80.7814 198.809 80.4131C198.441 80.0448 198.234 79.5453 198.234 79.0245C198.234 78.5037 198.441 78.0041 198.809 77.6359C199.177 77.2676 199.677 77.0607 200.198 77.0607H260.413C260.934 77.0607 261.433 77.2676 261.801 77.6359C262.17 78.0041 262.377 78.5037 262.377 79.0245C262.377 79.5453 262.17 80.0448 261.801 80.4131C261.433 80.7814 260.934 80.9883 260.413 80.9883Z" fill="#E6E6E6"/>
<path d="M260.413 88.7483H200.198C199.677 88.7483 199.177 88.5414 198.809 88.1731C198.441 87.8047 198.234 87.3052 198.234 86.7844C198.234 86.2635 198.441 85.764 198.809 85.3957C199.177 85.0273 199.677 84.8204 200.198 84.8204H260.413C260.934 84.8204 261.433 85.0273 261.802 85.3957C262.17 85.764 262.377 86.2635 262.377 86.7844C262.377 87.3052 262.17 87.8047 261.802 88.1731C261.433 88.5414 260.934 88.7483 260.413 88.7483Z" fill="#E6E6E6"/>
<path d="M226.299 96.5084H200.198C199.677 96.5084 199.177 96.3015 198.809 95.9332C198.441 95.5649 198.234 95.0653 198.234 94.5445C198.234 94.0236 198.441 93.5241 198.809 93.1558C199.177 92.7875 199.677 92.5806 200.198 92.5806H226.299C226.558 92.5802 226.813 92.6308 227.052 92.7293C227.29 92.8279 227.507 92.9725 227.69 93.1549C227.872 93.3373 228.017 93.5539 228.116 93.7923C228.215 94.0308 228.266 94.2864 228.266 94.5445C228.266 94.8026 228.215 95.0582 228.116 95.2966C228.017 95.5351 227.872 95.7517 227.69 95.9341C227.507 96.1165 227.29 96.2611 227.052 96.3596C226.813 96.4582 226.558 96.5087 226.299 96.5084Z" fill="#E6E6E6"/>
<path d="M260.413 127.547H200.198C199.94 127.547 199.684 127.496 199.446 127.397C199.208 127.298 198.991 127.154 198.809 126.971C198.627 126.789 198.482 126.573 198.383 126.334C198.285 126.096 198.234 125.841 198.234 125.583C198.234 125.325 198.285 125.07 198.383 124.831C198.482 124.593 198.627 124.377 198.809 124.194C198.991 124.012 199.208 123.867 199.446 123.769C199.684 123.67 199.94 123.619 200.198 123.619H260.413C260.671 123.619 260.926 123.67 261.164 123.769C261.403 123.867 261.619 124.012 261.801 124.194C261.984 124.377 262.129 124.593 262.227 124.831C262.326 125.07 262.377 125.325 262.377 125.583C262.377 125.841 262.326 126.096 262.227 126.334C262.129 126.573 261.984 126.789 261.801 126.971C261.619 127.154 261.403 127.298 261.164 127.397C260.926 127.496 260.671 127.547 260.413 127.547Z" fill="#E6E6E6"/>
<path d="M260.413 135.307H200.198C199.677 135.306 199.178 135.099 198.81 134.731C198.443 134.362 198.236 133.863 198.236 133.343C198.236 132.822 198.443 132.323 198.81 131.955C199.178 131.587 199.677 131.38 200.198 131.379H260.413C260.933 131.38 261.432 131.587 261.8 131.955C262.168 132.323 262.374 132.822 262.374 133.343C262.374 133.863 262.168 134.362 261.8 134.731C261.432 135.099 260.933 135.306 260.413 135.307Z" fill="#E6E6E6"/>
<path d="M226.299 143.067H200.198C199.677 143.067 199.177 142.86 198.809 142.492C198.441 142.123 198.234 141.624 198.234 141.103C198.234 140.582 198.441 140.082 198.809 139.714C199.177 139.346 199.677 139.139 200.198 139.139H226.299C226.558 139.139 226.813 139.189 227.052 139.288C227.29 139.386 227.507 139.531 227.69 139.713C227.872 139.896 228.017 140.112 228.116 140.351C228.215 140.589 228.266 140.845 228.266 141.103C228.266 141.361 228.215 141.617 228.116 141.855C228.017 142.093 227.872 142.31 227.69 142.492C227.507 142.675 227.29 142.819 227.052 142.918C226.813 143.017 226.558 143.067 226.299 143.067Z" fill="#E6E6E6"/>
<path d="M176.175 102.34H139.924C138.952 102.339 138.021 101.952 137.334 101.265C136.647 100.578 136.261 99.6467 136.26 98.6752V74.8938C136.261 73.9223 136.647 72.9908 137.334 72.3039C138.021 71.6169 138.952 71.2305 139.924 71.2294H176.175C177.146 71.2305 178.078 71.6169 178.765 72.3039C179.452 72.9908 179.838 73.9223 179.839 74.8938V98.6752C179.838 99.6467 179.452 100.578 178.765 101.265C178.078 101.952 177.146 102.339 176.175 102.34Z" fill="#E6E6E6"/>
<path d="M173.627 74.201H142.473C141.588 74.2019 140.74 74.5536 140.114 75.179C139.489 75.8043 139.136 76.6523 139.135 77.537V96.0313C139.136 96.9161 139.488 97.7643 140.114 98.3899C140.74 99.0156 141.588 99.3676 142.473 99.3688H162.339C166.216 99.365 169.934 97.823 172.676 95.0812C175.417 92.3395 176.959 88.622 176.963 84.7446V77.537C176.962 76.6525 176.61 75.8045 175.985 75.1791C175.36 74.5537 174.512 74.202 173.627 74.201Z" fill="white"/>
<path d="M164.823 80.4534L164.73 80.6212C165.559 78.5788 164.805 76.062 163.326 74.5219C161.848 72.9818 159.793 72.2777 157.769 71.9984C156.267 71.791 154.707 71.797 153.279 72.3473C151.21 73.1442 149.63 74.989 148.31 76.9081C147.706 77.7859 147.113 78.7866 147.173 79.8837C147.229 80.9018 147.833 81.7658 148.328 82.6296C148.823 83.4933 149.236 84.565 148.881 85.5078C148.67 86.0696 148.222 86.4742 147.859 86.9338C147.496 87.3934 147.198 88.0146 147.373 88.5912C147.451 88.8118 147.585 89.0085 147.761 89.162C147.938 89.3154 148.151 89.4204 148.38 89.4668C148.825 89.5409 149.279 89.5301 149.719 89.4351L161.254 87.6922C162.038 87.5738 162.782 87.2676 163.422 86.7996C164.062 86.3317 164.579 85.716 164.929 85.0049C165.28 84.2939 165.453 83.5086 165.435 82.7161C165.416 81.9235 165.206 81.1472 164.823 80.4534Z" fill="#2F2E41"/>
<path d="M156.243 87.6118C159.357 87.6118 161.882 85.0868 161.882 81.9719C161.882 78.8571 159.357 76.332 156.243 76.332C153.128 76.332 150.603 78.8571 150.603 81.9719C150.603 85.0868 153.128 87.6118 156.243 87.6118Z" fill="#FFB9B9"/>
<path d="M170.96 96.5505C168.46 98.385 165.44 99.3725 162.339 99.3688H145.032C144.997 99.3406 144.964 99.3124 144.929 99.2826L146.543 94.7789C146.908 93.9789 147.484 93.2934 148.209 92.7957C148.933 92.298 149.78 92.007 150.657 91.9539L151.684 91.8908L154.133 89.7791C154.133 89.7791 160.73 89.5436 160.632 89.4308L164.628 91.8344L164.625 91.8178L166.196 91.9141C167.073 91.967 167.92 92.2579 168.645 92.7556C169.369 93.2533 169.945 93.939 170.31 94.739L170.96 96.5505Z" fill="#EA3C12"/>
<path d="M161.592 76.7375C161.447 75.9673 160.661 75.6151 159.988 75.4444C158.036 74.9463 156.005 74.8348 154.01 75.1161C152.556 75.3235 151.067 75.7808 150.012 76.9159C149.161 77.8718 148.679 79.0997 148.652 80.3791C148.609 81.144 148.78 81.9059 149.146 82.5792C149.309 82.8926 149.552 83.1581 149.849 83.3497C150.146 83.5412 150.488 83.6522 150.841 83.6717L150.909 83.907C153.74 83.5125 156.371 81.7507 158.027 79.1389C157.716 80.2491 157.098 81.2486 156.242 82.022C158.154 81.2571 159.816 79.9763 161.043 78.3225C161.378 77.8779 161.703 77.3234 161.592 76.7375Z" fill="#2F2E41"/>
<path d="M176.175 58.2077H139.924C138.952 58.2066 138.021 57.8201 137.334 57.1332C136.647 56.4462 136.261 55.5148 136.26 54.5433V30.7618C136.261 29.7903 136.647 28.8589 137.334 28.1719C138.021 27.4849 138.952 27.0985 139.924 27.0974H176.175C177.146 27.0985 178.078 27.4849 178.765 28.1719C179.452 28.8589 179.838 29.7903 179.839 30.7618V54.5433C179.838 55.5148 179.452 56.4462 178.765 57.1332C178.078 57.8201 177.146 58.2066 176.175 58.2077Z" fill="#CCCCCC"/>
<path d="M173.627 30.0691H142.473C141.588 30.0702 140.74 30.4219 140.114 31.0472C139.489 31.6726 139.137 32.5204 139.135 33.405V51.8993C139.136 52.7841 139.488 53.6323 140.114 54.258C140.74 54.8836 141.588 55.2356 142.473 55.2369H162.339C166.216 55.2337 169.934 53.6919 172.676 50.95C175.418 48.2081 176.96 44.4902 176.963 40.6126V33.405C176.962 32.5205 176.61 31.6726 175.985 31.0472C175.36 30.4218 174.512 30.07 173.627 30.0691Z" fill="white"/>
<path d="M150.562 33.6569C152.029 33.6569 153.219 32.4674 153.219 31.0001C153.219 29.5329 152.029 28.3434 150.562 28.3434C149.094 28.3434 147.905 29.5329 147.905 31.0001C147.905 32.4674 149.094 33.6569 150.562 33.6569Z" fill="#2F2E41"/>
<path d="M154.813 43.7526C158.53 43.7526 161.543 40.7393 161.543 37.0222C161.543 33.3051 158.53 30.2917 154.813 30.2917C151.095 30.2917 148.082 33.3051 148.082 37.0222C148.082 40.7393 151.095 43.7526 154.813 43.7526Z" fill="#2F2E41"/>
<path d="M155.37 43.7509C158.39 43.7509 160.839 41.3022 160.839 38.2816C160.839 35.261 158.39 32.8124 155.37 32.8124C152.349 32.8124 149.9 35.261 149.9 38.2816C149.9 41.3022 152.349 43.7509 155.37 43.7509Z" fill="#9E616A"/>
<path d="M159.084 32.7065C158.125 32.1223 157.028 31.8062 155.905 31.7914C154.783 31.7766 153.677 32.0636 152.704 32.6224C151.73 33.1812 150.925 33.9913 150.372 34.9679C149.818 35.9446 149.538 37.0519 149.559 38.1741C152.346 38.8738 155.274 39.4093 158.246 38.3415L158.947 36.6237L159.361 38.3427C160.266 38.7127 161.174 39.0257 162.081 38.3392C162.118 37.2201 161.861 36.1109 161.335 35.1225C160.809 34.134 160.033 33.301 159.084 32.7065Z" fill="#2F2E41"/>
<path d="M148.088 23.788C147.155 23.3899 146.13 23.2608 145.128 23.4152C144.125 23.5696 143.186 24.0014 142.416 24.6618C141.664 25.341 141.091 26.1959 140.748 27.1503C140.406 28.1047 140.305 29.1289 140.455 30.1317C140.756 32.1714 141.996 33.9278 143.139 35.6437C144.282 37.3597 145.399 39.24 145.397 41.3018C145.396 42.7867 144.807 44.2108 143.757 45.2615C142.708 46.3123 141.285 46.9041 139.8 46.907C141.543 47.6573 143.362 48.4223 145.257 48.3334C147.153 48.2444 149.139 47.0259 149.448 45.1538C149.671 43.8048 149.009 42.4894 148.457 41.2385C147.558 39.2003 146.908 37.061 146.522 34.8671C146.338 33.82 146.218 32.7191 146.559 31.7122C146.831 30.966 147.335 30.327 147.998 29.8893C148.66 29.4516 149.446 29.2384 150.239 29.2811L150.865 28.7177C150.973 27.7092 150.763 26.6924 150.265 25.8088C149.767 24.9252 149.006 24.2189 148.088 23.788Z" fill="#2F2E41"/>
<path d="M169.837 53.1633C167.573 54.5237 164.98 55.2406 162.339 55.2369H143.591L143.561 55.212L145.175 50.7066C145.54 49.9069 146.115 49.2216 146.84 48.7242C147.565 48.2268 148.411 47.9361 149.289 47.8833L150.316 47.8202L152.764 45.7085C152.764 45.7085 159.361 45.4713 159.263 45.3585L163.26 47.7622L163.256 47.7472L164.827 47.8435C165.705 47.8957 166.551 48.1862 167.276 48.6836C168.001 49.1811 168.577 49.8667 168.941 50.6668L169.837 53.1633Z" fill="#EA3C12"/>
<path d="M176.175 148.898H139.924C138.952 148.897 138.021 148.51 137.334 147.823C136.647 147.137 136.261 146.205 136.26 145.234V121.452C136.261 120.481 136.647 119.549 137.334 118.862C138.021 118.175 138.952 117.789 139.924 117.788H176.175C177.146 117.789 178.078 118.175 178.765 118.862C179.452 119.549 179.838 120.481 179.839 121.452V145.234C179.838 146.205 179.452 147.137 178.765 147.823C178.078 148.51 177.146 148.897 176.175 148.898Z" fill="#E6E6E6"/>
<path d="M173.627 120.759H142.473C141.588 120.76 140.74 121.112 140.114 121.737C139.489 122.363 139.136 123.211 139.135 124.095V142.59C139.136 143.474 139.488 144.323 140.114 144.948C140.74 145.574 141.588 145.926 142.473 145.927H162.339C166.216 145.923 169.934 144.381 172.676 141.64C175.417 138.898 176.959 135.18 176.963 131.303V124.095C176.962 123.211 176.61 122.363 175.985 121.737C175.36 121.112 174.512 120.76 173.627 120.759Z" fill="white"/>
<path d="M158.022 132.525C162.167 132.525 165.526 129.165 165.526 125.021C165.526 120.876 162.167 117.517 158.022 117.517C153.878 117.517 150.518 120.876 150.518 125.021C150.518 129.165 153.878 132.525 158.022 132.525Z" fill="#2F2E41"/>
<path d="M158.025 133.51C161.728 133.51 164.729 130.509 164.729 126.807C164.729 123.104 161.728 120.103 158.025 120.103C154.323 120.103 151.322 123.104 151.322 126.807C151.322 130.509 154.323 133.51 158.025 133.51Z" fill="#FFB8B8"/>
<path d="M171.434 142.747C168.851 144.809 165.644 145.93 162.339 145.927H145.621L147.207 141.503C147.572 140.703 148.147 140.018 148.872 139.52C149.597 139.022 150.443 138.731 151.321 138.678L152.348 138.615L154.796 136.503C154.796 136.503 161.393 136.268 161.295 136.155L165.292 138.559L165.288 138.542L166.859 138.638C167.737 138.691 168.583 138.982 169.308 139.48C170.033 139.978 170.609 140.663 170.973 141.463L171.434 142.747Z" fill="#EA3C12"/>
<path d="M165.098 124.456C165.145 123.955 165.166 123.453 165.162 122.95C165.19 121.956 165.008 120.967 164.628 120.048C164.161 119.03 163.328 118.226 162.294 117.794C161.27 117.381 160.126 117.382 159.102 117.797C158.202 117.177 157.159 116.797 156.071 116.693C155.526 116.649 154.978 116.738 154.475 116.951C153.971 117.165 153.527 117.497 153.18 117.919C153.031 118.153 152.862 118.372 152.675 118.576C152.14 119.071 151.326 119 150.614 118.899C150.933 119.172 151.252 119.446 151.572 119.719C151.185 119.82 150.799 119.921 150.412 120.022C150.863 120.296 151.314 120.57 151.765 120.843C150.456 121.629 149.861 123.344 150.018 124.902C150.167 126.377 150.879 127.726 151.73 128.925C152.07 128.208 151.997 127.351 151.991 126.544C151.988 126.282 152.004 126.02 152.039 125.761C154.916 126.45 157.922 126.893 160.97 125.798L161.582 124.3C161.668 124.309 161.753 124.318 161.839 124.327L162.194 125.799C162.997 126.128 163.802 126.415 164.608 126.113C164.647 126.34 164.671 126.572 164.689 126.796C164.758 126.529 164.818 126.26 164.872 125.99C164.979 125.933 165.08 125.868 165.177 125.795C165.196 125.347 165.17 124.898 165.098 124.456Z" fill="#2F2E41"/>
<path d="M277.495 6.9032H121.141C120.909 6.90295 120.686 6.81059 120.522 6.64641C120.358 6.48222 120.266 6.25961 120.265 6.02741V0.87579C120.266 0.643595 120.358 0.42098 120.522 0.256793C120.686 0.0926061 120.909 0.000254184 121.141 0H277.495C277.727 0.000253307 277.95 0.0926059 278.114 0.256793C278.278 0.420981 278.371 0.643595 278.371 0.87579V6.02741C278.371 6.25961 278.278 6.48222 278.114 6.64641C277.95 6.81059 277.727 6.90295 277.495 6.9032Z" fill="#E4E4E4"/>
<path d="M125.348 4.44371C126.035 4.44371 126.591 3.88702 126.591 3.20031C126.591 2.5136 126.035 1.95691 125.348 1.95691C124.661 1.95691 124.104 2.5136 124.104 3.20031C124.104 3.88702 124.661 4.44371 125.348 4.44371Z" fill="white"/>
<path d="M130.067 4.44371C130.754 4.44371 131.311 3.88702 131.311 3.20031C131.311 2.5136 130.754 1.95691 130.067 1.95691C129.381 1.95691 128.824 2.5136 128.824 3.20031C128.824 3.88702 129.381 4.44371 130.067 4.44371Z" fill="white"/>
<path d="M134.787 4.44371C135.474 4.44371 136.031 3.88702 136.031 3.20031C136.031 2.5136 135.474 1.95691 134.787 1.95691C134.101 1.95691 133.544 2.5136 133.544 3.20031C133.544 3.88702 134.101 4.44371 134.787 4.44371Z" fill="white"/>
<path d="M272.871 2.34445H267.436C267.33 2.34445 267.227 2.30204 267.152 2.22654C267.076 2.15104 267.034 2.04865 267.034 1.94188C267.034 1.83511 267.076 1.73271 267.152 1.65722C267.227 1.58172 267.33 1.53931 267.436 1.53931H272.871C272.978 1.53931 273.08 1.58172 273.156 1.65722C273.231 1.73271 273.274 1.83511 273.274 1.94188C273.274 2.04865 273.231 2.15104 273.156 2.22654C273.08 2.30204 272.978 2.34445 272.871 2.34445Z" fill="white"/>
<path d="M272.871 3.85421H267.436C267.384 3.85421 267.331 3.8438 267.282 3.82357C267.233 3.80334 267.189 3.77369 267.152 3.7363C267.114 3.69892 267.085 3.65454 267.064 3.6057C267.044 3.55686 267.034 3.50451 267.034 3.45164C267.034 3.39877 267.044 3.34643 267.064 3.29759C267.085 3.24874 267.114 3.20436 267.152 3.16698C267.189 3.1296 267.233 3.09995 267.282 3.07972C267.331 3.05949 267.384 3.04907 267.436 3.04907H272.871C272.924 3.04907 272.976 3.05949 273.025 3.07972C273.074 3.09995 273.118 3.1296 273.156 3.16698C273.193 3.20436 273.223 3.24874 273.243 3.29759C273.263 3.34643 273.274 3.39877 273.274 3.45164C273.274 3.50451 273.263 3.55686 273.243 3.6057C273.223 3.65454 273.193 3.69892 273.156 3.7363C273.118 3.77369 273.074 3.80334 273.025 3.82357C272.976 3.8438 272.924 3.85421 272.871 3.85421Z" fill="white"/>
<path d="M272.871 5.36386H267.436C267.33 5.36386 267.227 5.32145 267.152 5.24595C267.076 5.17046 267.034 5.06806 267.034 4.96129C267.034 4.85452 267.076 4.75213 267.152 4.67663C267.227 4.60113 267.33 4.55872 267.436 4.55872H272.871C272.978 4.55872 273.08 4.60113 273.156 4.67663C273.231 4.75213 273.274 4.85452 273.274 4.96129C273.274 5.06806 273.231 5.17046 273.156 5.24595C273.08 5.32145 272.978 5.36386 272.871 5.36386Z" fill="white"/>
<path d="M245.577 52.911C246.819 52.911 247.826 51.9042 247.826 50.6623C247.826 49.4205 246.819 48.4137 245.577 48.4137C244.335 48.4137 243.328 49.4205 243.328 50.6623C243.328 51.9042 244.335 52.911 245.577 52.911Z" fill="#EA3C12"/>
<path d="M252.879 52.911C254.121 52.911 255.128 51.9042 255.128 50.6623C255.128 49.4205 254.121 48.4137 252.879 48.4137C251.637 48.4137 250.63 49.4205 250.63 50.6623C250.63 51.9042 251.637 52.911 252.879 52.911Z" fill="#EA3C12"/>
<path d="M260.182 52.911C261.423 52.911 262.43 51.9042 262.43 50.6623C262.43 49.4205 261.423 48.4137 260.182 48.4137C258.94 48.4137 257.933 49.4205 257.933 50.6623C257.933 51.9042 258.94 52.911 260.182 52.911Z" fill="#EA3C12"/>
<path d="M245.577 96.7251C246.819 96.7251 247.826 95.7183 247.826 94.4764C247.826 93.2345 246.819 92.2278 245.577 92.2278C244.335 92.2278 243.328 93.2345 243.328 94.4764C243.328 95.7183 244.335 96.7251 245.577 96.7251Z" fill="#E6E6E6"/>
<path d="M252.879 96.7251C254.121 96.7251 255.128 95.7183 255.128 94.4764C255.128 93.2345 254.121 92.2278 252.879 92.2278C251.637 92.2278 250.63 93.2345 250.63 94.4764C250.63 95.7183 251.637 96.7251 252.879 96.7251Z" fill="#E6E6E6"/>
<path d="M260.182 96.7251C261.423 96.7251 262.43 95.7183 262.43 94.4764C262.43 93.2345 261.423 92.2278 260.182 92.2278C258.94 92.2278 257.933 93.2345 257.933 94.4764C257.933 95.7183 258.94 96.7251 260.182 96.7251Z" fill="#E6E6E6"/>
<path d="M245.577 143.366C246.819 143.366 247.826 142.359 247.826 141.117C247.826 139.875 246.819 138.869 245.577 138.869C244.335 138.869 243.328 139.875 243.328 141.117C243.328 142.359 244.335 143.366 245.577 143.366Z" fill="#E6E6E6"/>
<path d="M252.879 143.366C254.121 143.366 255.128 142.359 255.128 141.117C255.128 139.875 254.121 138.869 252.879 138.869C251.637 138.869 250.63 139.875 250.63 141.117C250.63 142.359 251.637 143.366 252.879 143.366Z" fill="#E6E6E6"/>
<path d="M260.182 143.366C261.423 143.366 262.43 142.359 262.43 141.117C262.43 139.875 261.423 138.869 260.182 138.869C258.94 138.869 257.933 139.875 257.933 141.117C257.933 142.359 258.94 143.366 260.182 143.366Z" fill="#E6E6E6"/>
<path d="M181.572 52.6022L169.981 45.2635C169.76 45.1234 169.505 45.0455 169.243 45.0381C168.981 45.0306 168.722 45.0939 168.493 45.2213C168.265 45.3486 168.074 45.5353 167.942 45.7617C167.811 45.9881 167.742 46.2459 167.745 46.5078L167.859 59.1616C167.862 59.4979 167.981 59.8229 168.196 60.0813C168.412 60.3397 168.71 60.5156 169.04 60.5793C169.37 60.643 169.712 60.5905 170.008 60.4307C170.304 60.2709 170.536 60.0136 170.664 59.7026L172.172 56.0343L176.376 64.324C176.576 64.7162 176.923 65.0132 177.342 65.1496C177.76 65.2861 178.216 65.2509 178.608 65.0518C179.001 64.8527 179.299 64.5059 179.436 64.0876C179.573 63.6693 179.538 63.2137 179.34 62.8209L175.039 54.3427L180.551 55.2704C180.883 55.3263 181.224 55.2656 181.516 55.0986C181.808 54.9316 182.033 54.6687 182.154 54.3544C182.274 54.0401 182.282 53.6939 182.176 53.3745C182.07 53.0551 181.856 52.7822 181.572 52.6022Z" fill="#3F3D56"/>
<path d="M34.8158 131.388C35.0974 131.082 35.3084 130.717 35.4339 130.321C35.5594 129.924 35.5964 129.504 35.5423 129.092C35.4882 128.679 35.3442 128.284 35.1207 127.933C34.8971 127.582 34.5992 127.284 34.2482 127.061L36.5809 117.218L31.6437 119.022L30.1854 128.092C29.8492 128.707 29.7501 129.423 29.907 130.106C30.0639 130.789 30.4658 131.39 31.0365 131.797C31.6073 132.203 32.3072 132.386 33.0038 132.311C33.7003 132.235 34.345 131.907 34.8158 131.388Z" fill="#FFB8B8"/>
<path d="M46.6887 90.1427L44.7072 95.2378C44.7072 95.2378 45.5564 100.333 44.1411 101.465C42.7258 102.598 43.2919 102.598 43.2919 103.447C43.2432 104.056 43.0667 104.648 42.7741 105.184C42.4815 105.721 42.0793 106.19 41.5935 106.56C40.4613 107.41 35.3661 124.677 35.3661 124.677H30.271C30.4356 123.361 30.4356 122.029 30.271 120.714C29.9879 118.732 31.1202 113.637 31.6863 112.788C32.2524 111.939 31.6863 110.806 31.6863 109.108C31.6863 107.41 32.8185 106.56 32.8185 103.73C32.8185 100.899 36.2153 78.8201 35.9322 76.2725C35.6492 73.725 38.7629 71.4604 38.7629 71.4604H41.5935L46.6887 90.1427Z" fill="#E6E6E6"/>
<path d="M36.3486 193.383H40.016L41.7615 179.236H36.3482L36.3486 193.383Z" fill="#FFB6B6"/>
<path d="M35.1515 190.871L41.0109 190.521V193.032L46.5817 196.879C46.8569 197.069 47.0641 197.342 47.1732 197.658C47.2822 197.974 47.2873 198.317 47.1878 198.636C47.0883 198.955 46.8894 199.234 46.62 199.433C46.3507 199.631 46.0251 199.738 45.6907 199.738H38.7147L37.5123 197.254L37.0428 199.738H34.4126L35.1515 190.871Z" fill="#2F2E41"/>
<path d="M56.9502 193.383H60.6176L62.3631 179.236H56.9499L56.9502 193.383Z" fill="#FFB6B6"/>
<path d="M55.7531 190.871L61.6126 190.521V193.032L67.1834 196.879C67.4585 197.069 67.6657 197.342 67.7748 197.658C67.8838 197.974 67.889 198.317 67.7895 198.636C67.69 198.955 67.491 199.234 67.2217 199.433C66.9523 199.631 66.6267 199.738 66.2923 199.738H59.3164L58.1139 197.254L57.6445 199.738H55.0143L55.7531 190.871Z" fill="#2F2E41"/>
<path d="M34.766 181.184H34.8058L36.8403 158.182C36.3839 157.301 36.1522 156.322 36.166 155.33C36.1798 154.338 36.4385 153.365 36.9192 152.498L37.0202 152.315L36.7584 151.101C36.4221 149.542 36.5764 147.917 37.2002 146.448L36.5291 124.992C34.1782 109.756 45.3818 99.8203 45.3818 99.8203H62.1649L65.768 112.2C67.1209 125.38 71.3515 139.243 70.7911 152.021C70.3647 161.741 65.571 170.465 63.9379 179.931L64.041 179.983C64.412 180.111 64.5711 180.625 64.3965 181.131C64.2219 181.637 63.7795 181.943 63.4084 181.815L54.545 181.507C54.174 181.379 54.0148 180.865 54.1895 180.359C54.3641 179.853 54.8065 179.547 55.1776 179.675L55.7802 179.979L60.1438 156.787L60.2864 152.732L59.9926 148.133L52.9851 128.442L47.8427 153.882L42.5899 181.44C42.7347 181.571 42.8364 181.743 42.8815 181.933C42.9266 182.123 42.9129 182.322 42.8423 182.505C42.7718 182.687 42.6476 182.844 42.4862 182.954C42.3248 183.064 42.1337 183.123 41.9383 183.122H34.766C34.6387 183.122 34.5126 183.097 34.395 183.048C34.2774 183 34.1706 182.928 34.0806 182.838C33.9906 182.748 33.9192 182.641 33.8705 182.524C33.8218 182.406 33.7967 182.28 33.7967 182.153C33.7967 182.026 33.8218 181.899 33.8705 181.782C33.9192 181.664 33.9906 181.557 34.0806 181.467C34.1706 181.377 34.2774 181.306 34.395 181.257C34.5126 181.209 34.6387 181.184 34.766 181.184Z" fill="#2F2E41"/>
<path d="M33.3752 110.168C32.8242 110.168 32.5112 110.06 32.39 109.828C32.2122 109.488 32.5208 109.044 32.8781 108.529C33.1432 108.193 33.3522 107.817 33.4972 107.414C33.7109 106.559 35.1531 84.9694 34.2904 80.6556C34.0909 79.6574 34.2627 78.3779 34.8009 76.8528C36.271 72.6876 38.2777 71.4074 42.2753 68.8575C42.5998 68.6505 42.9377 68.4343 43.289 68.2088C43.7435 67.9168 43.7182 66.9485 43.6914 65.9231C43.6617 64.7835 43.6309 63.6049 44.1892 62.8683L44.2255 62.8203L44.2841 62.8066C45.6345 62.4945 50.1763 61.9149 52.8661 62.8109L52.9032 62.8235L52.931 62.8511C53.5699 63.49 53.6281 64.7277 53.6844 65.9244C53.7305 66.907 53.7742 67.8347 54.1357 68.2377C56.8992 71.3182 60.0335 71.2581 60.0653 71.2575L60.2206 71.2529L60.236 71.4074C61.4381 83.6348 63.376 102.09 63.7878 102.816C63.8094 102.849 63.8214 102.888 63.8226 102.927C63.8238 102.967 63.8141 103.006 63.7946 103.041C63.1901 104.17 35.452 110.168 33.3752 110.168Z" fill="#E6E6E6"/>
<path d="M51.4261 59.3455C55.9529 59.3455 59.6226 55.6758 59.6226 51.149C59.6226 46.6221 55.9529 42.9524 51.4261 42.9524C46.8992 42.9524 43.2295 46.6221 43.2295 51.149C43.2295 55.6758 46.8992 59.3455 51.4261 59.3455Z" fill="#FFB8B8"/>
<path d="M28.9095 47.4894C30.2953 45.8733 30.9542 43.7292 32.0621 41.894C33.17 40.0588 35.0979 38.4163 37.1346 38.8433C38.5386 39.1377 39.6237 40.3767 40.173 41.7579C40.7222 43.1392 40.8252 44.6624 40.9215 46.1547C40.8875 43.088 42.9079 40.1151 45.691 39.1366C48.4739 38.1581 51.8046 39.2496 53.5534 41.7132C54.3166 41.0059 55.3127 40.6031 56.353 40.5813C57.3933 40.5595 58.4055 40.9201 59.1977 41.5948C60.7619 42.9928 61.1081 45.6538 59.9577 47.437C59.3801 48.3047 58.5056 48.9317 57.4984 49.2002C56.4913 49.4688 55.4207 49.3605 54.4878 48.8956L53.8414 49.4901C54.0089 50.1256 53.9476 50.7998 53.6684 51.3947C53.3891 51.9896 52.9096 52.4674 52.3138 52.7446C51.3521 53.133 49.9944 53.0684 49.6345 54.0776C49.383 54.7828 49.8531 55.5355 50.3531 56.0774C50.853 56.6193 51.4467 57.1788 51.5067 57.9287C51.5974 59.0601 50.4282 59.8527 49.3654 60.0914C48.0624 60.3519 46.7113 60.2176 45.485 59.7059C44.2588 59.1941 43.2131 58.328 42.4819 57.2185C42.4534 57.1749 42.4225 57.1312 42.389 57.0875C41.5603 56.0277 40.9564 54.81 40.6141 53.5089C40.2719 52.2079 40.1985 50.8507 40.3984 49.5203C40.4815 48.9975 40.3978 48.6087 40.0374 48.4849C38.4796 47.9498 34.1152 49.0729 32.7944 50.0879C31.4735 51.1028 30.4158 52.4461 29.1435 53.5266C27.8712 54.6071 26.2499 55.4405 24.6344 55.1463C23.3406 54.9106 22.2399 53.9713 21.4996 52.8383C20.8014 51.6658 20.2798 50.3968 19.9516 49.0722C22.8126 50.725 26.7282 50.0331 28.9095 47.4894Z" fill="#2F2E41"/>
<path d="M64.5663 131.388C64.2847 131.082 64.0737 130.717 63.9482 130.321C63.8227 129.924 63.7857 129.504 63.8398 129.092C63.8939 128.679 64.0378 128.284 64.2614 127.933C64.485 127.582 64.7828 127.284 65.1339 127.061L62.8011 117.218L67.7384 119.022L69.1967 128.092C69.5329 128.707 69.6319 129.423 69.4751 130.106C69.3182 130.789 68.9163 131.39 68.3456 131.797C67.7748 132.203 67.0748 132.386 66.3783 132.311C65.6818 132.235 65.037 131.907 64.5663 131.388Z" fill="#FFB8B8"/>
<path d="M52.6934 90.1427L54.6748 95.2378C54.6748 95.2378 53.8256 100.333 55.2409 101.465C56.6563 102.598 56.0901 102.598 56.0901 103.447C56.1389 104.056 56.3153 104.648 56.6079 105.184C56.9005 105.721 57.3028 106.19 57.7885 106.56C58.9208 107.41 64.0159 124.677 64.0159 124.677H69.1111C68.9465 123.361 68.9465 122.029 69.1111 120.714C69.3942 118.732 68.2619 113.637 67.6958 112.788C67.1296 111.939 67.6958 110.806 67.6958 109.108C67.6958 107.41 66.5635 106.56 66.5635 103.73C66.5635 100.899 63.1667 78.8201 63.4498 76.2725C63.7329 73.725 60.6192 71.4604 60.6192 71.4604H57.7885L52.6934 90.1427Z" fill="#E6E6E6"/>
</g>
<defs>
<clipPath id="clip0_1_395">
<rect width="278.371" height="200" fill="white"/>
</clipPath>
</defs>
</svg>
