<svg width="173" height="200" viewBox="0 0 173 200" fill="none" xmlns="http://www.w3.org/2000/svg">
<g clip-path="url(#clip0_1_355)">
<path d="M172.21 177.534H125.988V176.936C138.088 176.936 149.692 172.129 158.248 163.573C166.805 155.017 171.611 143.413 171.611 131.312V99.0546H172.21V177.534Z" fill="#F2F2F2"/>
<path d="M46.0909 60.9431C44.8622 61.4112 43.6074 61.808 42.333 62.1316C40.6495 62.5419 39.699 62.732 38.0741 62.1014C38.0171 62.0793 37.9626 62.0574 37.9112 62.0358C34.8314 60.7264 32.1986 58.5498 30.3334 55.771C28.4683 52.9923 27.4511 49.7313 27.4058 46.3849C27.3977 46.2701 27.3977 46.1494 27.3977 46.0317C27.3961 45.4646 27.4232 44.8977 27.4789 44.3333C27.5501 43.5645 27.6731 42.8013 27.847 42.0491L27.8308 42.0461C26.5153 40.7009 26.0091 38.8582 26.1769 37.0067C26.2919 35.7515 26.6902 34.5387 27.342 33.4598C27.9937 32.3809 28.8819 31.464 29.9394 30.7782C31.5969 29.7361 33.4657 29.0765 35.4101 28.8472C35.9321 28.787 36.4572 28.7565 36.9828 28.7559H41.9201C42.9398 28.5172 43.9757 28.3539 45.0195 28.2673H45.0276C54.9645 27.4431 62.8009 34.0308 62.0701 42.0461C62.0647 42.055 62.0566 42.0638 62.0511 42.0726C61.84 42.417 61.6532 42.7437 61.4881 43.0558C61.3284 43.3472 61.1931 43.6268 61.0767 43.8917C60.1699 45.9405 64.4792 77.7263 62.9336 78.209C62.0538 78.4827 58.5078 54.83 59.1439 59.3278C59.9452 64.9706 50.6688 59.2509 46.0909 60.9431Z" fill="#2F2E41"/>
<path d="M61.0604 118.403L74.8349 147.748L21.8474 142.381L32.9082 114.21L61.0604 118.403Z" fill="#FFB6B6"/>
<path d="M88.7118 177.239C79.4976 180.306 69.7873 181.607 60.0907 181.072L55.8741 174.234C55.8741 174.234 55.6976 176.781 55.4342 180.674C50.8184 180.139 46.2628 179.174 41.827 177.789C33.4148 175.159 25.5293 171.083 17.5361 167.324C15.9172 157.673 15.3097 142.791 24.2605 134.128L72.4381 142.956C72.4381 142.956 80.1679 148.737 78.1001 150.808C76.0322 152.876 75.712 152.556 77.0706 153.915C78.4293 155.273 81.365 157.09 81.3949 158.278C81.4069 158.742 84.7017 167.154 88.7118 177.239Z" fill="#2F2E41"/>
<path d="M52.6475 61.6971L41.0079 62.5092L33.4848 69.7788L30.85 70.2491C28.4817 70.6714 26.3507 71.948 24.8611 73.837C23.3714 75.726 22.6267 78.0959 22.7682 80.4974C23.3102 89.6794 24.5236 103.399 27.0598 107.85C30.9924 114.752 34.2407 112.586 30.9924 114.752C27.7442 116.917 25.5634 115.216 27.0598 118.638C28.5563 122.061 25.0373 126.45 25.0373 126.45L23.6365 127.851L25.1222 128.46L72.4638 134.62C72.4638 134.62 68.3704 116.215 70.9304 111.694C73.4904 107.173 79.6975 93.506 74.1577 88.1584L68.7412 69.0974L59.4242 66.3495L52.6475 61.6971Z" fill="#EA3C12"/>
<path d="M123.107 137.237C122.328 137.212 121.564 137.018 120.867 136.669C120.17 136.32 119.558 135.824 119.072 135.214C118.586 134.605 118.238 133.898 118.052 133.141C117.866 132.384 117.847 131.596 117.996 130.831L95.7889 115.791L98.4386 108.626L124.683 126.682C125.953 127.028 127.05 127.828 127.769 128.929C128.488 130.031 128.778 131.358 128.583 132.659C128.389 133.96 127.724 135.145 126.715 135.988C125.706 136.832 124.422 137.276 123.107 137.237Z" fill="#FFB6B6"/>
<path d="M60.3836 68.1971L57.1567 69.4748L74.3705 103.095L110.006 127.385L115.143 118.703L88.0166 95.2728L77.1566 74.4449C75.6282 71.5138 73.068 69.2529 69.9702 68.0991C66.8725 66.9452 63.4571 66.9801 60.3836 68.1971Z" fill="#EA3C12"/>
<path d="M46.222 58.7403C52.677 58.7403 57.9098 53.5075 57.9098 47.0525C57.9098 40.5975 52.677 35.3647 46.222 35.3647C39.767 35.3647 34.5342 40.5975 34.5342 47.0525C34.5342 53.5075 39.767 58.7403 46.222 58.7403Z" fill="#FFB6B6"/>
<path d="M56.3857 42.1101C56.1908 42.2129 55.9986 42.3077 55.8037 42.4024C55.6007 42.4999 55.3977 42.5973 55.192 42.6893C51.2805 44.4623 48.0945 44.66 46.1618 42.1101C46.1089 40.7686 45.8069 39.4486 45.2712 38.2176C45.3659 39.5933 45.0033 40.9617 44.2399 42.1101H40.3474C36.3385 44.7709 34.2813 47.2153 37.064 55.9503C37.2453 56.5242 38.4878 76.9124 38.8424 78.4797C32.7736 76.1518 27.5385 51.4353 27.4059 44.9225C27.3977 44.817 27.3977 44.706 27.3977 44.5977C27.3962 44.076 27.4233 43.5546 27.479 43.0358C27.5504 42.3276 27.6734 41.6256 27.8471 40.9353L27.8308 40.9326C27.2134 40.3423 26.7423 39.6159 26.4552 38.8113C26.168 38.0068 26.0728 37.1463 26.1769 36.2984C27.195 34.9654 28.4549 33.8359 29.8908 32.969C31.1964 32.3367 32.5574 31.8257 33.9565 31.4423C33.9917 31.4342 34.0215 31.426 34.0566 31.4179C34.4843 31.3015 34.9229 31.196 35.3614 31.1039C36.265 30.9144 37.1787 30.7761 38.098 30.6898C38.1657 30.6871 38.2306 30.6816 38.2902 30.6816C38.6579 30.6819 39.0188 30.781 39.3351 30.9686C39.3378 30.9686 39.3378 30.9713 39.3432 30.9713C39.6471 31.1529 39.8991 31.4096 40.075 31.7168C40.2508 32.024 40.3447 32.3713 40.3474 32.7253H44.6838C44.8435 32.7253 45.0033 32.7308 45.163 32.7389C51.202 32.9798 56.0555 35.5621 56.3667 41.4983C56.3803 41.7041 56.3857 41.9044 56.3857 42.1101Z" fill="#2F2E41"/>
<path d="M30.7479 42.58C35.0005 42.58 38.4479 39.1326 38.4479 34.88C38.4479 30.6274 35.0005 27.1801 30.7479 27.1801C26.4954 27.1801 23.048 30.6274 23.048 34.88C23.048 39.1326 26.4954 42.58 30.7479 42.58Z" fill="#2F2E41"/>
<path d="M41.3192 31.3185C40.4444 35.4802 36.1285 37.9692 31.9996 36.951C30.0169 36.4621 28.3096 35.2055 27.2533 33.4578C26.197 31.71 25.8782 29.6142 26.3672 27.6315C27.3853 23.5026 32.3962 24.6929 35.6867 21.999C40.3416 18.188 42.4989 25.7063 41.3192 31.3185Z" fill="#2F2E41"/>
<path d="M24.211 147.162C30.7735 120.4 43.7766 97.398 65.3113 79.376C66.1448 78.0049 67.488 77.0204 69.0464 76.6385C70.6048 76.2566 72.251 76.5084 73.6239 77.3387L124.818 108.379C126.189 109.212 127.173 110.555 127.555 112.114C127.937 113.672 127.685 115.318 126.855 116.691C118.635 144.152 106.324 167.98 85.7545 184.477C84.921 185.849 83.5778 186.833 82.0195 187.215C80.4611 187.597 78.8149 187.345 77.4419 186.515L26.2483 155.475C24.8772 154.641 23.8927 153.298 23.5108 151.74C23.1289 150.181 23.3807 148.535 24.211 147.162Z" fill="#F2F2F2"/>
<path opacity="0.2" d="M33.3102 156.181C31.9391 155.348 30.9547 154.005 30.5727 152.446C30.1908 150.888 30.4426 149.242 31.2729 147.869C37.8355 121.107 50.8386 98.1046 72.3733 80.0825C72.925 79.1851 73.7039 78.4493 74.6313 77.9496L73.6239 77.3387C72.251 76.5084 70.6048 76.2566 69.0464 76.6385C67.4881 77.0204 66.1448 78.0048 65.3114 79.3758C43.7766 97.3979 30.7736 120.4 24.2111 147.162C23.3807 148.535 23.1289 150.181 23.5108 151.74C23.8928 153.298 24.8772 154.641 26.2483 155.475L77.4419 186.515C78.3531 187.063 79.393 187.361 80.4562 187.377C81.5195 187.394 82.5683 187.13 83.4964 186.611L33.3102 156.181Z" fill="black"/>
<path d="M93.3472 141.229L58.9837 120.524C58.4378 120.194 58.0451 119.661 57.8919 119.042C57.7387 118.423 57.8376 117.768 58.1668 117.222C58.496 116.675 59.0286 116.282 59.6477 116.128C60.2667 115.974 60.9215 116.072 61.4683 116.401L95.8319 137.106C96.3765 137.436 96.7678 137.969 96.9202 138.588C97.0726 139.207 96.9735 139.86 96.6447 140.406C96.3159 140.952 95.7842 141.345 95.1661 141.499C94.548 141.653 93.894 141.557 93.3472 141.229Z" fill="white"/>
<path d="M73.3567 113.772L65.7967 109.217C65.2489 108.889 64.8536 108.357 64.698 107.738C64.5424 107.119 64.6391 106.463 64.9668 105.915C65.2946 105.368 65.8265 104.972 66.4457 104.817C67.0649 104.661 67.7205 104.758 68.2684 105.085L68.2814 105.093L75.8413 109.649C76.3861 109.979 76.7776 110.512 76.9301 111.131C77.0825 111.749 76.9835 112.403 76.6547 112.949C76.3258 113.495 75.794 113.888 75.1758 114.042C74.5576 114.196 73.9034 114.099 73.3567 113.772Z" fill="white"/>
<path d="M87.8857 150.294L53.5221 129.588C52.9756 129.259 52.582 128.727 52.428 128.107C52.274 127.488 52.3721 126.833 52.7007 126.286C53.0293 125.74 53.5616 125.346 54.1806 125.191C54.7996 125.036 55.4547 125.134 56.0019 125.462L56.0067 125.465L90.3703 146.17C90.9149 146.501 91.3063 147.034 91.4586 147.652C91.611 148.271 91.5119 148.925 91.1832 149.47C90.8544 150.016 90.3227 150.409 89.7046 150.563C89.0865 150.718 88.4324 150.621 87.8857 150.294Z" fill="white"/>
<path d="M97.7112 102.189C103.254 102.189 107.748 97.6954 107.748 92.1521C107.748 86.6089 103.254 82.1152 97.7112 82.1152C92.168 82.1152 87.6743 86.6089 87.6743 92.1521C87.6743 97.6954 92.168 102.189 97.7112 102.189Z" fill="#3F3D56"/>
<path d="M80.4102 199.701C92.258 199.701 101.863 190.096 101.863 178.248C101.863 166.401 92.258 156.796 80.4102 156.796C68.5624 156.796 58.9579 166.401 58.9579 178.248C58.9579 190.096 68.5624 199.701 80.4102 199.701Z" fill="white"/>
<path d="M80.4102 200C76.1081 200 71.9027 198.724 68.3257 196.334C64.7486 193.944 61.9607 190.547 60.3143 186.572C58.668 182.598 58.2372 178.224 59.0765 174.005C59.9158 169.786 61.9874 165.91 65.0294 162.868C68.0714 159.826 71.9472 157.754 76.1666 156.915C80.386 156.075 84.7595 156.506 88.7341 158.153C92.7087 159.799 96.1058 162.587 98.4959 166.164C100.886 169.741 102.162 173.946 102.162 178.248C102.155 184.015 99.8616 189.544 95.7837 193.622C91.7059 197.7 86.1771 199.994 80.4102 200ZM80.4102 157.095C76.2265 157.095 72.1368 158.336 68.6582 160.66C65.1795 162.985 62.4683 166.288 60.8673 170.154C59.2662 174.019 58.8473 178.272 59.6636 182.375C60.4798 186.479 62.4944 190.248 65.4527 193.206C68.4111 196.164 72.1802 198.179 76.2835 198.995C80.3868 199.811 84.64 199.392 88.5052 197.791C92.3705 196.19 95.6741 193.479 97.9984 190C100.323 186.522 101.563 182.432 101.563 178.248C101.557 172.64 99.3263 167.263 95.3607 163.298C91.3951 159.332 86.0184 157.102 80.4102 157.095Z" fill="#3F3D56"/>
<path d="M77.4836 189.413C77.1132 189.413 76.7478 189.327 76.4165 189.161C76.0852 188.996 75.797 188.755 75.5748 188.459L69.7223 180.655C69.5339 180.404 69.3969 180.119 69.3189 179.815C69.2409 179.512 69.2235 179.196 69.2677 178.885C69.3119 178.575 69.4169 178.276 69.5765 178.006C69.7362 177.737 69.9476 177.501 70.1984 177.313C70.4492 177.125 70.7347 176.988 71.0384 176.91C71.3422 176.832 71.6583 176.815 71.9686 176.86C72.279 176.904 72.5775 177.009 72.8472 177.169C73.1169 177.329 73.3524 177.541 73.5403 177.792L77.3693 182.897L87.2034 168.146C87.3772 167.885 87.6007 167.661 87.861 167.487C88.1214 167.312 88.4136 167.191 88.7209 167.129C89.0282 167.068 89.3446 167.068 89.652 167.128C89.9594 167.189 90.2518 167.31 90.5126 167.484C90.7733 167.658 90.9973 167.881 91.1717 168.141C91.346 168.402 91.4674 168.694 91.5289 169.001C91.5903 169.309 91.5907 169.625 91.5299 169.932C91.469 170.24 91.3483 170.532 91.1744 170.793L79.4694 188.351C79.2576 188.668 78.9728 188.93 78.6389 189.115C78.3049 189.3 77.9316 189.402 77.5501 189.413C77.5279 189.413 77.5058 189.413 77.4836 189.413Z" fill="#EA3C12"/>
<path d="M149.691 69.5375C150.543 69.4646 151.193 68.9248 151.143 68.3318C151.092 67.7388 150.36 67.3171 149.507 67.39C148.655 67.4629 148.005 68.0027 148.056 68.5957C148.106 69.1887 148.838 69.6104 149.691 69.5375Z" fill="white"/>
<path d="M159.282 66.2838C160.135 66.2109 160.785 65.6711 160.734 65.0781C160.683 64.4851 159.951 64.0634 159.099 64.1363C158.246 64.2092 157.596 64.749 157.647 65.3421C157.698 65.9351 158.43 66.3567 159.282 66.2838Z" fill="#3F3D56"/>
<path d="M145.144 62.22C145.997 62.1471 146.647 61.6073 146.596 61.0143C146.545 60.4212 145.813 59.9996 144.961 60.0725C144.108 60.1454 143.458 60.6852 143.509 61.2782C143.56 61.8712 144.292 62.2929 145.144 62.22Z" fill="#FF6584"/>
<path d="M141.121 59.862C141.488 59.7791 141.689 59.2844 141.57 58.7569C141.451 58.2295 141.057 57.8692 140.69 57.9521C140.323 58.035 140.122 58.5297 140.241 59.0572C140.36 59.5846 140.754 59.9449 141.121 59.862Z" fill="#E6E6E6"/>
<path d="M138.257 54.1377C138.624 54.0548 138.824 53.56 138.705 53.0326C138.586 52.5052 138.192 52.1448 137.825 52.2277C137.458 52.3106 137.257 52.8054 137.377 53.3328C137.496 53.8602 137.89 54.2206 138.257 54.1377Z" fill="#3F3D56"/>
<path d="M152 62.1766C152.367 62.0937 152.568 61.5989 152.448 61.0715C152.329 60.5441 151.935 60.1837 151.568 60.2666C151.201 60.3495 151.001 60.8443 151.12 61.3717C151.239 61.8992 151.633 62.2595 152 62.1766Z" fill="#E6E6E6"/>
<path d="M147.811 65.6544C148.178 65.5715 148.378 65.0767 148.259 64.5493C148.14 64.0219 147.746 63.6615 147.379 63.7444C147.012 63.8273 146.811 64.3221 146.931 64.8495C147.05 65.3769 147.444 65.7373 147.811 65.6544Z" fill="#FF6584"/>
<path d="M155.437 68.487C155.804 68.4041 156.005 67.9094 155.886 67.3819C155.767 66.8545 155.373 66.4942 155.006 66.5771C154.639 66.66 154.438 67.1547 154.557 67.6822C154.676 68.2096 155.07 68.5699 155.437 68.487Z" fill="#3F3D56"/>
<path d="M110.091 25.1955C110.238 24.6185 109.684 23.9804 108.854 23.7703C108.025 23.5601 107.234 23.8574 107.088 24.4344C106.942 25.0113 107.496 25.6494 108.325 25.8596C109.154 26.0697 109.945 25.7724 110.091 25.1955Z" fill="white"/>
<path d="M99.9633 25.1301C100.11 24.5532 99.5558 23.9151 98.7264 23.7049C97.8971 23.4948 97.1062 23.7921 96.96 24.369C96.8138 24.946 97.3676 25.5841 98.1969 25.7943C99.0263 26.0044 99.8171 25.7071 99.9633 25.1301Z" fill="#3F3D56"/>
<path d="M111.992 33.5982C112.138 33.0212 111.584 32.3832 110.755 32.173C109.926 31.9628 109.135 32.2601 108.989 32.8371C108.842 33.414 109.396 34.0521 110.225 34.2623C111.055 34.4724 111.846 34.1751 111.992 33.5982Z" fill="#FF6584"/>
<path d="M114.353 36.7666C114.413 36.2293 114.159 35.7598 113.785 35.718C113.411 35.6762 113.059 36.078 112.999 36.6154C112.939 37.1528 113.193 37.6222 113.567 37.664C113.941 37.7058 114.293 37.304 114.353 36.7666Z" fill="#E6E6E6"/>
<path d="M115.186 43.1132C115.246 42.5758 114.991 42.1063 114.618 42.0646C114.244 42.0228 113.892 42.4246 113.832 42.9619C113.772 43.4993 114.026 43.9688 114.4 44.0106C114.774 44.0523 115.126 43.6506 115.186 43.1132Z" fill="#3F3D56"/>
<path d="M104.831 31.0185C104.891 30.4811 104.637 30.0116 104.263 29.9698C103.889 29.9281 103.538 30.3298 103.477 30.8672C103.417 31.4046 103.672 31.8741 104.046 31.9158C104.419 31.9576 104.771 31.5558 104.831 31.0185Z" fill="#E6E6E6"/>
<path d="M109.928 29.1037C109.988 28.5663 109.734 28.0968 109.36 28.055C108.986 28.0133 108.634 28.415 108.574 28.9524C108.514 29.4898 108.769 29.9593 109.143 30.001C109.516 30.0428 109.868 29.6411 109.928 29.1037Z" fill="#FF6584"/>
<path d="M103.649 23.9305C103.709 23.3931 103.455 22.9236 103.081 22.8818C102.707 22.8401 102.355 23.2418 102.295 23.7792C102.235 24.3166 102.49 24.7861 102.863 24.8278C103.237 24.8696 103.589 24.4678 103.649 23.9305Z" fill="#3F3D56"/>
<path d="M0.598517 78.4797H0V0H46.222V0.598517C34.1219 0.598517 22.5174 5.40526 13.9613 13.9613C5.40526 22.5174 0.598517 34.1219 0.598517 46.2219V78.4797Z" fill="#F2F2F2"/>
<path d="M27.4031 147.446C26.6382 147.132 25.9505 146.656 25.3876 146.051C24.8246 145.446 24.3999 144.725 24.1428 143.94C23.8856 143.154 23.8022 142.322 23.8983 141.501C23.9944 140.68 24.2677 139.889 24.6992 139.184L8.2085 116.004L13.4988 109.866L32.8839 137.541C34.0166 138.356 34.8111 139.558 35.1168 140.919C35.4226 142.281 35.2183 143.707 34.5427 144.928C33.8672 146.149 32.7672 147.079 31.4513 147.543C30.1355 148.007 28.6951 147.973 27.4031 147.446Z" fill="#FFB6B6"/>
<path d="M27.782 73.9862C26.9477 73.4953 25.9658 73.3179 25.0124 73.4857C24.0591 73.6536 23.1968 74.1557 22.5804 74.902L0.299194 106.063L20.948 135.391L29.028 126.712L16.4592 106.961L33.1632 91.057C34.5359 88.0498 34.7456 84.6406 33.7518 81.4879C32.7579 78.3352 30.6311 75.6626 27.782 73.9862Z" fill="#EA3C12"/>
</g>
<defs>
<clipPath id="clip0_1_355">
<rect width="172.21" height="200" fill="white"/>
</clipPath>
</defs>
</svg>
